<?xml version="1.0" standalone="no"?>
<!DOCTYPE svg PUBLIC "-//W3C//DTD SVG 1.1//EN" "http://www.w3.org/Graphics/SVG/1.1/DTD/svg11.dtd" >
<svg xmlns="http://www.w3.org/2000/svg">
<metadata>Generated by IcoMoon</metadata>
<defs>
<font id="icomoon" horiz-adv-x="1024">
<font-face units-per-em="1024" ascent="960" descent="-64" />
<missing-glyph horiz-adv-x="1024" />
<glyph unicode="&#x20;" d="" horiz-adv-x="512" />
<glyph unicode="&#xe600;" d="M905.629 363.209l-5.43-0.37c-105.827-5.75-212.963 1.876-316.767 22.804-36.674 7.453-75.002-0.123-106.148-20.78-31.442-20.929-52.963-52.815-60.342-89.736-7.478-36.995-0.099-74.681 20.805-106.173 20.953-31.393 52.815-52.914 89.81-60.293l88.7-17.942c16.98-3.48 34.354-5.158 51.482-5.158 50.915 0 100.447 14.907 143.193 43.313 57.652 38.303 96.943 96.745 110.64 164.59l8.416 41.66c1.456 7.132-0.518 14.512-5.257 20.040-4.788 5.479-11.896 8.416-19.102 8.046zM875.569 302.793c-11.18-55.579-43.437-103.458-90.674-134.851-46.793-31.023-104.347-42.351-159.457-31.294l-88.7 17.967c-24.828 4.985-46.053 19.324-60.046 40.352-13.895 21.003-18.905 46.225-13.895 70.93 4.961 24.729 19.25 46.028 40.327 59.997 15.573 10.316 33.589 15.844 52.124 15.844 6.293 0 12.611-0.617 18.831-1.9 99.633-20.114 201.585-28.505 303.884-24.803l-2.394-12.241zM1172.641 378.289c0.049 0.469 0.049 0.888 0.049 1.333 0 2.591-0.444 5.183-1.259 7.552l-0.42 2.122c-0.494 3.282-0.963 6.54-1.53 9.675-0.543 3.603-1.308 7.108-1.974 10.637l-1.209 5.948c-0.839 3.924-1.728 7.848-2.69 11.772 0 0.074-0.494 1.826-0.494 1.9-2.197 8.441-4.64 16.758-7.651 25.519l-1.16 3.554c-26.235 76.138-77.52 143.193-144.131 188.752-7.132 4.887-16.437 5.43-24.162 1.431-7.725-4.072-12.513-12.044-12.513-20.756 0-73.521-63.23-132.58-138.010-125.596l-236.582 22.286c46.916 51.161 71.646 119.204 67.598 190.628-7.429 131.371-116.316 238.901-247.86 244.677-124.263 5.701-232.954-76.977-263.236-194.65-42.844-4.171-86.38-3.776-129.051 1.678-6.688 0.987-13.401-1.209-18.461-5.652-5.084-4.492-7.898-10.81-7.898-17.646 0-32.454 12.685-63.082 35.588-86.059 5.676-5.652 12.858-10.859 21.965-15.943 13.179-7.355 27.79-12.488 42.869-15.77-2.271-6.515-3.702-13.426-3.702-20.731 0-35.070 28.456-63.6 63.551-63.6h15.622c8.218 0 16.313 1.086 23.545 2.665 23.026-30.554 52.075-56.073 85.763-73.99-75.175-58.565-120.413-149.338-120.413-246.034 0-158.865 129.15-287.99 288.014-287.99h304.871c91.143 0 178.534 28.012 252.722 81.024 116.637 83.344 178.485 221.403 162.246 361.264zM69.030 690.465c-7.725 7.675-13.451 16.684-17.177 26.506 41.758-3.159 83.788-2.271 125.152 3.011 4.146-0.099 8.243-0.518 12.192-1.333 0.987-0.197 1.826-0.518 2.814-0.839 2.962-0.691 5.874-1.555 8.737-2.69 1.308-0.518 2.567-1.209 3.85-1.802 2.295-1.111 4.566-2.345 6.688-3.677 1.283-0.79 2.567-1.654 3.727-2.567 1.974-1.555 3.776-3.036 5.652-4.689 1.111-1.037 2.197-2.073 3.258-3.159 1.728-1.826 3.406-3.801 4.837-5.849 0.839-1.185 1.728-2.246 2.493-3.431 1.678-2.567 3.184-5.356 4.492-8.169 0.37-0.74 0.839-1.53 1.16-2.295 1.431-3.48 2.517-7.132 3.381-10.834h-103.976c-20.114 0-39.414 4.739-55.678 13.895-6.466 3.406-9.897 6.219-11.6 7.922zM160.493 588.24c-9.23 0-16.807 7.552-16.807 16.782s7.577 16.758 16.807 16.758h72.707c-0.271-0.518-0.518-0.963-0.74-1.431-1.382-2.221-2.739-4.319-4.368-6.343-0.568-0.765-1.234-1.58-1.876-2.443-1.654-1.95-3.529-3.776-5.43-5.528-0.666-0.666-1.407-1.431-2.147-2.024-2.122-1.777-4.442-3.505-6.762-4.985-0.666-0.42-1.308-0.888-1.9-1.259-3.11-1.876-6.417-3.579-9.872-4.862-0.518-0.271-1.086-0.543-1.58-0.74-1.555-0.518-3.381-1.086-5.701-1.654-5.602-1.53-11.229-2.271-16.733-2.271h-15.598zM983.297 55.253c-66.266-47.311-144.131-72.337-225.451-72.337h-304.896c-132.975 0-241.147 108.221-241.147 241.147 0 94.993 51.285 183.174 134.037 230.264 8.070 4.64 12.636 13.5 11.723 22.73s-7.231 17.004-15.993 19.941c-38.427 12.439-72.51 35.662-98.226 66.562 0.568 0.469 1.086 0.938 1.629 1.407 1.037 0.79 1.974 1.58 2.962 2.468 2.69 2.271 5.43 4.64 7.873 7.132 0.913 0.888 1.777 1.826 2.641 2.739 2.468 2.591 4.813 5.405 7.009 8.218 0.642 0.913 1.407 1.826 2.073 2.715 2.271 3.184 4.319 6.417 6.244 9.773 0.444 0.74 0.913 1.53 1.333 2.295 2.147 3.973 4.072 8.046 5.726 12.266 0.099 0.222 0.197 0.494 0.296 0.617 3.579 9.23 5.948 19.028 7.009 29.172 0 0.099 0.025 0.197 0.049 0.296 0 0.025 0.025 0.025 0.025 0.049 0.395 3.751 0.543 7.601 0.543 11.402 0 5.948-0.518 11.822-1.505 17.473-0.148 0.987-0.271 1.974-0.469 2.937-1.012 5.479-2.443 10.76-4.196 15.869-0.346 1.012-0.642 1.974-1.061 2.962-1.851 5.183-4.122 10.217-6.688 14.931-0.197 0.42-0.518 0.691-0.666 1.086-2.567 4.64-5.553 8.959-8.737 13.13-0.518 0.642-0.987 1.333-1.555 1.95-3.332 4.171-6.935 8.021-10.81 11.698-0.765 0.74-1.555 1.505-2.443 2.147-3.924 3.603-8.218 6.861-12.685 9.847-0.518 0.395-1.185 0.691-1.777 1.086-4.27 2.789-8.761 5.257-13.574 7.453-0.592 0.271-1.209 0.568-1.826 0.888-4.936 2.147-10.069 3.85-15.4 5.306-0.518 0.148-1.135 0.494-1.654 0.568 28.283 90.995 114.564 153.953 213.136 149.338 107.826-4.739 197.044-92.821 203.091-200.524 4.319-74.336-29.492-144.254-90.477-187-0.321-0.222-0.494-0.518-0.716-0.74-0.617-0.469-1.086-1.061-1.654-1.555-1.505-1.431-2.789-2.937-3.85-4.665-0.469-0.666-0.765-1.456-1.234-2.221-0.963-2.048-1.555-4.171-1.95-6.417-0.025-0.494-0.296-0.839-0.346-1.357-0.025-0.148 0.049-0.346 0.049-0.494-0.197-2.567-0.049-5.158 0.642-7.725 0.049-0.197 0.197-0.42 0.247-0.543 0.222-0.74 0.518-1.357 0.888-2.048 0.691-1.9 1.604-3.603 2.814-5.281 0.543-0.74 1.234-1.407 1.802-2.048 1.382-1.431 2.764-2.567 4.467-3.603 0.666-0.518 1.407-0.987 2.197-1.407 2.517-1.234 5.158-2.172 7.972-2.468l203.609-19.201c0.148 0 0.247 0 0.296 0l86.75-8.194c5.553-0.518 11.007-0.79 16.437-0.79 0.049 0 0.049 0 0.049 0 80.259 0 147.882 55.086 167.182 129.52 43.19-37.859 76.384-86.898 95.092-140.824l0.592-1.9c0.049-0.173 0.518-1.925 0.518-2.048 2.493-7.182 4.64-14.438 6.861-23.421 0.839-3.356 1.555-6.713 2.443-10.39l1.061-5.133c0.617-3.011 1.308-6.047 1.777-9.28 0.518-2.863 0.913-5.676 1.308-8.564l0.864-5.849c15.82-124.189-38.698-247.317-142.329-321.357zM475.557 736.024c0 44.991-36.65 81.715-81.666 81.715-45.041 0-81.74-36.625-81.74-81.715s36.625-81.69 81.74-81.69c44.991 0.025 81.666 36.65 81.666 81.69zM393.891 701.2c-19.201 0-34.823 15.622-34.823 34.823 0 19.176 15.622 34.799 34.823 34.799 19.127 0 34.725-15.622 34.725-34.799 0-19.201-15.548-34.823-34.725-34.823z" horiz-adv-x="1175" />
<glyph unicode="&#xe601;" d="M98.601 571.003v-120.535h48.394v-20.541h-48.394v-120.525h48.394v-20.531h-48.394v-120.402h48.394v-20.541h-48.394v-120.525h48.394v-20.531h-68.925v584.663h68.925v-20.531zM321.004 647.137c10.004 4.731 17.132 14.868 17.132 26.665v52.47c0 16.2-13.332 29.532-29.471 29.532h-19.927l-39.332 67.932-36.475 63.263c5.796 7.731 9.871 16.732 9.871 27.197 0 25.262-20.337 45.804-45.67 45.804s-45.66-20.531-45.66-45.804c0-10.465 4.065-19.466 9.861-27.197l-36.465-63.263-39.332-67.932h-19.937c-16.2 0-29.532-13.332-29.532-29.532v-52.47c0-11.796 7.199-21.934 17.203-26.665-20.47-24.474-33.27-55.542-33.27-89.876v-536.863c0-46.531 37.868-84.398 84.398-84.398h185.467c46.541 0 84.398 37.868 84.398 84.398v536.863c0 34.335-12.8 65.403-33.26 89.876zM322.068 20.398c0-28.795-23.398-52.204-52.204-52.204h-185.467c-28.795 0-52.204 23.398-52.204 52.204v536.863c0 35.666 17.469 67.072 44.073 86.938h201.667c26.665-19.866 44.134-51.261 44.134-86.938v-536.863z" horiz-adv-x="354" />
<glyph unicode="&#xe602;" d="M556.575 792.105c0-92.726-75.169-167.895-167.895-167.895s-167.895 75.169-167.895 167.895c0 92.726 75.169 167.895 167.895 167.895s167.895-75.169 167.895-167.895zM749.65 353.505c-18.442 39.516-45.199 83.958-66.478 119.613-34.345 57.559-72.417 103.516-152.259 103.516-26.931 0-118.6 0.010-260.27 0.010-122.583 0-166.892-127.007-205.855-200.591-29.645-56.003-61.88-142.070-64.492-189.88-5.325-97.372 62.351-161.106 72.796-168.571 54.682-39.035 118.159-72.223 221.983-80.876 77.302-6.431 147.159 31.027 154.286 73.759 8.448 50.739-23.767 86.088-90.214 83.087-103.895-4.69-171.151 25.774-191.447 35.912-51.282 25.641 10.025 24.689 23.020 25.692 32.236 2.478 64.471 9.923 80.579 23.562 16.527 13.988 1.567 9.677-19.866 76.636-16.353 51.067 7.219 72.407 20.132 76.626 31.826 10.404 50.166-3.635 69.007-38.083 12.667-23.153 29.286-48.456 38.062-58.481 12.995-14.858 22.374-31.549 49.183-47.585 22.016-13.179 48.21-21.565 69.775-22.825 22.006-1.3 20.828-0.225 40.919 3.297-21.432-20.132-95.519-72.079-44.165-127.304 27.269-29.338 88.371-18.084 116.992-6.953s77.896 45.097 120.105 97.382c81.715 101.202 32.297 191.867 18.207 222.054zM517.868 188.436c-64.41 0-116.644 52.224-116.644 116.654 0 64.42 52.234 116.654 116.644 116.654 64.43 0 116.654-52.234 116.654-116.654-0.010-64.43-52.224-116.654-116.654-116.654z" horiz-adv-x="777" />
<glyph unicode="&#xe603;" d="M1032.516 822.483c0 12.53-10.145 22.676-22.676 22.676h-856.734c-12.53 0-22.676-10.145-22.676-22.676v-405.199c0-0.305 0.022-0.559 0.046-0.863 0-0.022-0.022-0.022-0.022-0.046 0-1.8 0.258-3.531 0.281-5.33 0.187-10.73 0.608-21.413 1.706-31.886 0.14-1.333 0.467-2.572 0.584-3.882 20.947-182.321 176.032-324.431 363.893-324.431h169.134c163.923 0 302.994 108.167 349.703 256.894 0.022 0.022 0.022 0.070 0.046 0.094 2.945 9.351 5.259 19.006 7.433 28.659 0.491 2.197 1.239 4.3 1.682 6.498 1.706 8.393 2.83 16.972 3.974 25.551 0.491 3.622 1.286 7.154 1.636 10.801 0.841 8.134 1.005 16.413 1.333 24.687 0.187 4.161 0.608 8.229 0.654 12.389 0 0.045-0.045 0.094-0.045 0.117 0 0.258 0.045 0.514 0.045 0.795v405.155zM987.164 799.805v-359.848c-0.045 0-0.045 0-0.094 0-192.536 0-349.655-153.005-357.043-343.811h-97.063c-7.433 190.782-164.506 343.811-357.067 343.811-0.022 0-0.070 0-0.094 0v359.848h811.358zM985.762 389.604c-0.421-5.050-1.098-10.006-1.731-14.961-0.725-5.353-1.472-10.73-2.431-16.014-0.959-5.002-2.080-9.935-3.227-14.845-1.192-5.050-2.431-10.099-3.882-15.080-1.45-4.932-2.968-9.818-4.605-14.658-1.613-4.747-3.345-9.42-5.166-14.074-1.917-4.862-3.927-9.655-6.078-14.376-2.011-4.395-4.113-8.743-6.312-13.020-2.385-4.723-4.839-9.375-7.458-13.979-2.314-4.068-4.769-8.042-7.293-11.993-2.875-4.536-5.751-9.048-8.859-13.466-2.595-3.716-5.377-7.316-8.134-10.917-3.367-4.325-6.663-8.627-10.216-12.788-2.875-3.39-5.962-6.592-8.977-9.866-3.739-4.044-7.41-8.134-11.386-11.993-3.133-3.062-6.474-5.892-9.724-8.836-4.185-3.716-8.252-7.526-12.53-11.011-3.413-2.758-7.013-5.259-10.496-7.83-4.465-3.345-8.883-6.804-13.513-9.889-3.694-2.454-7.575-4.605-11.361-6.895-4.747-2.898-9.398-5.937-14.284-8.579-8.579-4.652-17.393-8.906-26.44-12.764-4.068-1.73-8.3-3.109-12.461-4.652-5.377-2.034-10.684-4.209-16.2-5.938-4.3-1.379-8.721-2.385-13.115-3.554-5.565-1.497-11.104-3.109-16.761-4.325-4.465-0.981-9.141-1.59-13.698-2.362-5.703-0.959-11.361-1.964-17.159-2.619-4.699-0.538-9.538-0.748-14.284-1.075-4.3-0.281-8.627-0.538-12.951-0.654 7.526 165.23 144.029 297.407 311.013 297.969-0.14-1.637-0.14-3.318-0.281-4.956zM475.013 97.269c-4.791 0.327-9.586 0.538-14.307 1.075-5.798 0.654-11.455 1.659-17.135 2.619-4.581 0.772-9.234 1.403-13.77 2.385-5.611 1.192-11.082 2.78-16.573 4.278-4.418 1.192-8.929 2.221-13.28 3.599-5.353 1.706-10.496 3.787-15.71 5.777-4.325 1.636-8.743 3.040-12.974 4.862-2.339 0.981-4.511 2.244-6.827 3.295-12.017 5.494-23.611 11.711-34.786 18.585-3.437 2.103-7.012 4.068-10.357 6.312-4.862 3.272-9.469 6.85-14.165 10.334-3.295 2.454-6.663 4.791-9.866 7.364-4.489 3.647-8.743 7.598-13.045 11.479-3.085 2.78-6.242 5.472-9.211 8.367-4.090 3.998-7.949 8.229-11.827 12.415-2.875 3.133-5.798 6.171-8.533 9.398-3.647 4.3-7.108 8.767-10.52 13.255-2.641 3.437-5.283 6.85-7.785 10.403-3.203 4.558-6.194 9.258-9.164 13.956-2.385 3.787-4.723 7.55-6.943 11.409-2.735 4.769-5.283 9.608-7.763 14.517-2.080 4.113-4.090 8.23-5.985 12.415-2.244 4.909-4.325 9.911-6.312 14.939-1.754 4.441-3.39 8.929-4.932 13.441-1.73 5.050-3.343 10.145-4.839 15.289-1.38 4.747-2.549 9.563-3.694 14.376-1.216 5.12-2.385 10.286-3.343 15.521-0.936 5.050-1.637 10.169-2.339 15.289-0.701 5.214-1.402 10.403-1.846 15.686-0.14 1.566-0.14 3.18-0.258 4.723 166.962-0.538 303.485-132.713 311.013-297.969-4.35 0.070-8.627 0.327-12.928 0.608zM336.688 542.095c49.77 0 91.476 35.066 101.88 81.775h277.745c10.334-46.708 52.086-81.775 101.832-81.775 57.579 0 104.451 46.85 104.451 104.428 0 57.601-46.872 104.451-104.451 104.451-49.793 0-91.499-35.066-101.832-81.775h-277.745c-10.403 46.731-52.108 81.775-101.88 81.775-57.601 0-104.451-46.85-104.451-104.451 0-57.579 46.85-104.428 104.451-104.428zM818.193 705.643c32.566 0 59.074-26.51 59.074-59.074 0-32.588-26.533-59.074-59.074-59.074-32.611 0-59.074 26.51-59.074 59.074 0 32.54 26.462 59.074 59.074 59.074zM336.688 705.643c32.565 0 59.050-26.51 59.050-59.074 0-32.588-26.487-59.074-59.050-59.074-32.588 0-59.074 26.51-59.074 59.074 0 32.54 26.51 59.074 59.074 59.074z" horiz-adv-x="1163" />
<glyph unicode="&#xe604;" d="M984.864 742.782c48.497 49.213 48.265 128.685-0.624 177.621-23.832 23.809-55.501 36.939-89.18 36.939-33.333 0-64.701-12.922-88.417-36.292-51.825 25.219-108.944 38.95-168.259 38.95-102.98 0-199.789-40.106-272.58-112.92-72.814-72.791-112.92-169.599-112.92-272.557 0-59.893 13.962-117.52 39.643-169.761-51.247-35.644-108.297-66.596-170.432-91.63-26.329-10.587-49.652-26.583-69.37-47.48-72.444-76.975-69.925-199.927 5.64-273.967 37.91-37.147 87.446-55.686 137.030-55.686 50.207 0 100.414 19.024 138.463 57.142 20.411 20.411 35.737 44.475 45.561 71.427 20.735 57.073 50.369 112.458 87.793 164.768 52.565-26.121 110.724-40.314 171.171-40.314 102.934 0 199.765 40.106 272.557 112.92 72.791 72.791 112.92 169.599 112.92 272.58-0.092 59.315-13.823 116.434-38.996 168.259zM895.014 913.468c21.96 0 42.625-8.553 58.159-24.087 28.756-28.733 31.507-73.485 8.761-105.569-14.632 22.538-31.553 43.827-51.016 63.268-19.463 19.463-40.776 36.407-63.314 51.039 13.754 9.87 30.12 15.349 47.41 15.349zM337.187 79.872c-7.536-20.804-19.348-39.32-35.090-55.061-58.275-58.275-153.534-58.76-212.387-1.086-58.251 57.142-60.216 151.847-4.369 211.185 15.21 16.158 33.194 28.478 53.466 36.638 63.822 25.705 122.605 57.465 175.725 93.988 14.702-22.653 31.692-44.058 51.224-63.591 19.186-19.209 40.129-35.945 62.32-50.461-38.534-54.484-69.301-112.111-90.891-171.611zM397.426 333.658c-64.354 64.354-99.767 149.882-99.767 240.865 0 63.822 17.776 124.755 50.392 177.782l468.046-468.069c-53.004-32.593-113.96-50.392-177.782-50.392-91.006 0-176.534 35.459-240.888 99.813zM853.382 310.358l-479.21 479.21c7.281 8.923 15.025 17.545 23.254 25.797 7.859 7.859 16.065 15.256 24.526 22.237l479.465-479.465c-7.004-8.46-14.401-16.666-22.26-24.549-8.252-8.183-16.851-15.927-25.774-23.231zM927.699 395.285l-468.623 468.6c53.351 33.194 114.839 51.247 179.216 51.247 90.983 0 176.534-35.436 240.865-99.767s99.767-149.882 99.767-240.842c0.023-64.4-18.053-125.888-51.224-179.239zM195.326 212.532c-21.636 0-41.955-8.437-57.281-23.74-31.599-31.576-31.599-82.962 0-114.538 15.303-15.303 35.644-23.717 57.281-23.717 21.659 0 41.978 8.414 57.281 23.717 31.599 31.576 31.599 82.962 0 114.538-15.303 15.326-35.644 23.74-57.281 23.74zM220.915 105.992c-13.684-13.661-37.447-13.661-51.132 0-14.077 14.101-14.077 37.031 0 51.132 6.819 6.819 15.927 10.587 25.566 10.587s18.747-3.768 25.566-10.587c14.077-14.101 14.077-37.054 0-51.132z" />
<glyph unicode="&#xe605;" d="M817.212 166.81c-1.979 6.189-7.341 10.705-13.8 11.623l-113.621 16.517-49.083 99.407v184.025h125.37c9.392 0 17.039 7.629 17.039 17.075 0 103.995-81.343 189.351-183.809 195.684-7.953 47.752-49.605 84.276-99.605 84.276h-73.624v167.508c0 9.446-7.665 17.075-17.057 17.075-9.428 0-17.093-7.647-17.093-17.075v-167.508h-73.624c-49.983 0-91.617-36.506-99.605-84.276-102.412-6.369-183.791-91.689-183.791-195.684 0-9.428 7.629-17.075 17.075-17.075h125.334v-83.322l-49.065-99.425-113.639-16.517c-6.423-0.918-11.785-5.434-13.782-11.623-1.997-6.171-0.324-12.972 4.318-17.488l82.225-80.156-19.414-113.189c-1.116-6.369 1.529-12.882 6.801-16.715 2.969-2.159 6.477-3.275 10.040-3.275 2.717 0 5.452 0.666 7.953 1.943l101.638 53.473 101.638-53.473c2.501-1.313 5.236-1.943 7.953-1.943 0.090 0 0.18 0 0.27 0 9.428 0 17.093 7.665 17.093 17.057 0 2.033-0.36 4.030-1.008 5.812l-18.91 110.257 82.225 80.156c4.66 4.534 6.333 11.317 4.318 17.488s-7.359 10.705-13.782 11.623l-113.639 16.517-49.065 99.425v83.322h395.075v-184.007l-49.065-99.407-113.639-16.517c-6.405-0.918-11.767-5.434-13.782-11.623-1.997-6.171-0.36-12.972 4.3-17.506l82.207-80.174-19.306-113.117c-1.116-6.369 1.529-12.882 6.801-16.715 5.236-3.832 12.235-4.318 17.992-1.295l101.62 53.455 101.602-53.455c2.555-1.295 5.254-1.943 7.953-1.943 0.072 0.018 0.162 0.018 0.27 0 9.428 0 17.093 7.647 17.093 17.057 0 2.033-0.378 4.012-1.026 5.829l-18.928 110.239 82.243 80.174c4.678 4.534 6.333 11.317 4.318 17.488zM246.766 263.123l88.288-12.828-63.873-62.271c-4.030-3.922-5.847-9.59-4.894-15.132l15.060-87.928-78.95 41.508c-5.002 2.627-10.903 2.627-15.905 0l-78.968-41.508 15.078 87.928c0.936 5.542-0.882 11.209-4.912 15.132l-63.873 62.271 88.288 12.828c5.56 0.81 10.364 4.282 12.864 9.338l39.493 80.012 39.475-80.012c2.465-5.056 7.269-8.528 12.828-9.338zM231.005 657.37h3.437c9.428 0 17.075 7.647 17.075 17.075 0 36.848 29.975 66.823 66.823 66.823h181.416c36.866 0 66.841-29.975 66.841-66.823 0-9.428 7.629-17.075 17.075-17.075h3.437c83.502 0 152.449-63.567 160.977-144.856h-678.111c8.564 81.289 77.529 144.856 161.031 144.856zM700.406 87.32c-4.048-3.904-5.865-9.554-4.912-15.114l15.078-87.928-78.968 41.526c-2.501 1.313-5.2 1.943-7.935 1.943s-5.452-0.63-7.935-1.943l-78.968-41.526 15.078 87.946c0.972 5.542-0.882 11.191-4.894 15.114l-63.891 62.289 88.288 12.828c5.578 0.81 10.328 4.3 12.864 9.338l39.457 79.994 39.457-79.994c2.537-5.038 7.305-8.528 12.864-9.338l88.306-12.828-63.891-62.307z" horiz-adv-x="818" />
<glyph unicode="&#xe606;" d="M883.226 626.615c53.264 0 96.621 43.357 96.621 96.648s-43.357 96.648-96.621 96.648h-3.705l-36.881 121.208c-3.375 11.223-13.721 18.88-25.466 18.88h-654.558c-11.717 0-22.063-7.656-25.466-18.88l-36.854-121.208h-3.65c-53.291 0-96.648-43.357-96.648-96.648s43.357-96.648 96.648-96.648h7.629c-56.117-101.149-85.617-214.591-85.617-330.97v-173.566c0-102.631 83.476-186.080 186.107-186.080h570.313c102.631 0 186.080 83.449 186.080 186.080v173.566c0 116.379-29.472 229.821-85.589 330.97h7.656zM182.348 906.736h615.124l26.399-86.824h-667.922l26.399 86.824zM53.209 723.264c0 23.956 19.483 43.44 43.44 43.44h786.578c23.929 0 43.412-19.483 43.412-43.44s-19.483-43.412-43.412-43.412h-49.669c-1.784 0.384-3.65 0.686-5.543 0.686h-676.264c-1.893 0-3.732-0.302-5.543-0.686h-49.614c-23.901 0-43.385 19.456-43.385 43.412zM907.923 295.646v-173.566c0-73.241-59.603-132.843-132.871-132.843h-570.313c-73.241 0-132.843 59.603-132.843 132.843v173.566c0 117.312 32.491 231.44 94.096 330.97h647.835c61.633-99.557 94.096-213.658 94.096-330.97zM489.937 88.354c123.102 0 223.29 100.161 223.29 223.29s-100.133 223.317-223.29 223.317c-123.129 0-223.317-100.161-223.317-223.29s100.161-223.317 223.317-223.317zM489.937 481.725c93.74 0 170.026-76.287 170.026-170.054s-76.287-170.081-170.026-170.081c-93.767 0-170.081 76.287-170.081 170.054s76.259 170.081 170.081 170.081z" horiz-adv-x="980" />
<glyph unicode="&#xe607;" d="M878.856 413.959c-30.382 36.18-68.071 68.399-110.001 90.077 2.023 1.297 3.537 3.304 3.924 6.147 16.096 117.557-182.457 250.856-226.404 109.985-2.457 12.014-4.469 23.806-6.386 34.544-13.65 76.469 8.583 251.317-75.156 296.138-83.22 44.541-148.707-84.803-153.928-145.286-9.616-111.447 21.736-225.652 66.933-327.733-172.455 25.58-334.849-139.801-297.467-340.806 15.44-83.013 101.344-209.815 181.519-108.815 33.856 42.65 38.414 100.375 39.235 152.488 1.726 109.234-1.112 183.934 116.345 229.009 10.653 4.088 11.871 15.456 6.74 22.17 9.218-2.685 18.341-5.687 27.263-9.187 21.873-14.471 44.557-27.878 66.673-41.808-5.501-64.608 18.882-123.186 44.234-182.282 19.395-45.218 135.528-258.068 2.97-224.254-75.187 19.183-108.413 144.942-127.014 207.491-18.225 61.283-35.539 131.97-31.261 196.387 1.371 20.629-29.328 19.766-31.589 0-14.143-123.699 45.213-407.198 191.326-438.189 55.279-11.733 93.047 21.259 95.647 68.14 55.342-33.882 110.070-58.54 174.371-71.751 5.046-1.033 11.241-0.334 14.81 3.913 22.27 26.512 37.911 66.202 41.067 100.682 0.773 8.445-6.206 14.799-13.295 17.463-2.377 0.9-4.22 2.409-5.824 4.215 19.332-2.589 37.996 8.689 51.609 43.217 42.354 107.391 29.085 218.224-46.341 308.046zM554.894 601.287c19.427 59.133 66.483 72.492 118.034 41.835 49.677-29.545 66.885-77.93 78.174-130.667-48.295 20.857-101.387 27.253-155.024 9.69-2.827 4.58-7.291 8.414-12.252 13.232-16.165 15.705-25.59 38.42-32.039 62.072 1.334 0.72 2.483 1.943 3.108 3.839zM269.918 291.525c-6.285-42.957 3.828-341.499-102.467-251.793-48.263 40.734-57.365 128.623-55.464 186.793 2.065 63.269 35.947 119.516 81.075 161.388 59.504 55.21 140.219 65.778 215.131 48.21-78.232-17.060-126.606-64.836-138.276-144.598zM506.737 430.040c-28.052 17.876-55.406 36.81-85.841 50.296-4.231 1.874-8.615 1.419-12.401-0.228-32.151 86.111-56.512 177.686-63.713 269.044-4.792 60.796 1.716 129.46 56.073 166.683 79.646 54.537 89.907-63.491 94.223-110.594 8.128-88.758 7.476-181.975 46.209-264.13 20.936-44.419 21.815-40.697 2.79-94.567-16.335-46.283-3.675-37.97-37.34-16.504zM804.050-26.502c-48.226 10.352-95.954 28.492-138.89 52.075-1.207 0.662-2.377 0.985-3.495 1.064-0.201 1.525-0.302 3.018-0.567 4.564-21.015 118.823-110.271 219.939-125.579 340.848 6.582-0.604 13.285 2.955 16.981 8.599 0.275 0.418 0.524 0.89 0.794 1.313 30.996-147.648 121.518-298.844 255.881-370.949-3.643-12.93-5.29-26.241-5.131-37.43-0.005-0.037 0.005-0.064 0.005-0.085zM818.267 33.733c-131.679 87.969-189.345 229.708-249.485 372.162-0.328 0.773-0.805 1.223-1.218 1.816 4.289 8.922 8.249 18.257 11.823 27.819 1.303-1.885 3.018-3.632 5.321-5.088 113.687-71.746 153.271-199.088 220.553-309.29 5.708-9.361 12.263-18.357 19.326-26.411 0.191-0.646 0.138-1.213 0.418-1.89 6.259-14.926 7.349-27.57 10.23-38.16-6.883-5.411-12.48-12.692-16.97-20.957zM865.497 99.649c-49.507 39.092-83.866 130.424-110.997 185.078-37.165 74.859-80.763 130.927-152 176.145-5.014 3.182-9.88 3.373-14.058 1.832 4.284 14.741 7.603 29.371 9.822 43.122 107.126 21.921 202.688-42.687 264.215-126.378 25.95-35.301 42.597-75.627 51.683-118.261 3.754-17.632-15.106-188.037-48.665-161.537z" />
<glyph unicode="&#xe608;" d="M514.134-37.214c-118.812 0-236.003 0-354.579 0 0 5.167 0 9.643 0 14.119 0 119.307-0.523 238.621 0.226 357.924 0.371 58.709 23.649 107.316 70.43 143.844 23.13 18.066 25.278 39.684 7.316 62.42-3.625 4.584-5.655 12.5-4.635 18.201 1.576 8.805 9.523 12.173 18.387 12.173 57.359 0 114.728 0.337 172.079-0.501 6.173-0.091 14.939-5.675 17.55-11.102 2.283-4.744-0.527-14.315-4.345-19.215-17.649-22.681-15.591-43.589 7.001-61.41 46.377-36.585 70.421-84.411 70.526-143.62 0.207-120.456 0.049-240.913 0.046-361.37 0.001-3.4 0.001-6.799 0.001-11.468zM700.227 726.95c0-48.943 0.009-97.883-0.004-146.83-0.004-17.418-7.457-28.38-21.727-32.151-11.767-3.107-23.086 3.094-30.929 17.796-6.508 12.201-17.273 16.532-30.026 17.849-67.769 7.023-122.793 62.974-127.581 131.899-6.136 88.282 57.677 145.492 119.628 154.871 7.853 1.191 16.31 1.691 23.181 5.123 6.004 3.005 11.313 8.997 14.901 14.899 8.466 13.911 19.069 19.644 33.086 15.947 11.799-3.107 19.338-14.119 19.369-29.144 0.102-50.087 0.041-100.182 0.041-150.273 0.011 0.002 0.041 0.002 0.053 0.002zM349.475 456.16c0-19.647-15.923-35.576-35.576-35.576v0c-19.647 0-35.576 15.923-35.576 35.576v270.826c0 19.647 15.923 35.576 35.576 35.576v0c19.647 0 35.576-15.923 35.576-35.576v-270.826zM226.686 691.41c-19.647 0-35.576 15.923-35.576 35.576v0c0 19.647 15.923 35.576 35.576 35.576h270.826c19.647 0 35.576-15.923 35.576-35.576v0c0-19.647-15.923-35.576-35.576-35.576h-270.826z" horiz-adv-x="724" />
<glyph unicode="&#xe609;" d="M490.803 22.458h-377.533v25.6c0 34.87-0.043 69.741-0.088 104.612-0.105 83.044-0.216 168.916 0.317 253.385 0.395 62.936 25.575 114.349 74.844 152.821 8.876 6.93 13.823 14.178 14.71 21.541 0.892 7.432-2.247 15.748-9.336 24.712-5.668 7.18-8.517 18.421-6.929 27.335 2.387 13.343 13.762 21.632 29.689 21.632 5.19 0 10.378 0.002 15.566 0.005v96.986h-40.168c-25.946 0-47.047 21.108-47.047 47.047s21.108 47.047 47.047 47.047h258.127c19.195 64.346 74.733 100.381 123.066 107.705 1.613 0.243 3.252 0.461 4.903 0.68 5.689 0.754 11.068 1.463 14.867 3.358 3.351 1.683 7.273 5.742 10.232 10.6 9.107 14.971 20.858 22.559 34.929 22.559 3.51 0 7.17-0.497 10.883-1.479 16.917-4.459 27.878-20.248 27.917-40.22 0.071-36.221 0.057-72.434 0.046-108.659l-0.004-30.678 0.049-10.958 0.001-42.952c0.002-34.624 0.004-69.255-0.005-103.876-0.005-22.728-10.762-38.083-30.269-43.238-2.92-0.772-5.889-1.164-8.821-1.164-0.001 0-0.001 0-0.001 0-14.2 0-26.688 8.76-35.159 24.658-3.871 7.256-9.98 10.687-21.079 11.839-61.28 6.349-112.98 49.179-131.261 107.731h-124.156v-96.997c18.394-0.049 40.405-0.177 62.579-0.499 10.508-0.152 23.202-8.212 27.722-17.599 4.926-10.232-0.328-24.426-5.628-31.24-13.98-17.97-12.468-31.527 5.048-45.348 49.583-39.118 74.783-90.464 74.89-152.611 0.146-85.311 0.111-172.044 0.075-255.925-0.007-35.151-0.015-70.313-0.036-105.466v-22.95zM136.222 45.409h331.63c0.001 35.156 0.009 70.313 0.036 105.467 0.038 83.867 0.063 170.583-0.075 255.871-0.097 54.781-22.35 100.078-66.152 134.637-27.259 21.505-30.523 49.741-8.947 77.465 1.564 2.009 2.695 5.816 2.755 7.629-1.374 1.681-5.313 4.061-7.089 4.166-26.847 0.39-53.5 0.485-73.72 0.523l-11.451 0.012v142.849h164.766l2.167-8.705c13.359-53.637 59.094-93.486 113.799-99.155 18.687-1.937 31.433-9.747 38.971-23.865 2.491-4.673 7.737-12.507 14.909-12.507 0.951 0 1.943 0.135 2.952 0.402 6.136 1.627 13.176 5.483 13.186 21.065 0.009 34.623 0.007 69.245 0.005 103.868l-0.053 42.954 0.005 41.643c0.007 36.203 0.015 72.402-0.046 108.601-0.011 9.536-4.062 16.294-10.817 18.072-1.805 0.478-3.497 0.718-5.031 0.718-2.275 0-8.307 0-15.323-11.528-3.067-5.047-9.698-14.255-19.564-19.197-7.246-3.625-15.154-4.673-22.135-5.593-1.498-0.197-2.999-0.395-4.468-0.621-42.874-6.497-92.44-39.663-106.53-99.131l-2.091-8.83h-276.013c-13.286 0-24.096-10.812-24.096-24.096s10.812-24.096 24.096-24.096h63.117v-142.858l-15.001-0.010c-7.838-0.005-15.676-0.011-23.513-0.011-3.013 0-6.69-0.47-7.089-2.714-0.442-2.465 0.741-7.042 2.343-9.073 11.015-13.935 15.756-27.959 14.109-41.681-1.639-13.657-9.503-26.066-23.372-36.893-43.464-33.934-65.669-79.311-66.017-134.87-0.531-84.391-0.422-170.213-0.317-253.21 0.044-34.882 0.091-69.763 0.091-104.643v-2.65z" horiz-adv-x="724" />
<glyph unicode="&#xe60a;" d="M1000.112 804.14c-16.551 15.035-73.66 46.621-73.66 46.621s7.506 12.028 18.042 30.070c10.537 18.042 10.537 24.056-19.534 37.576s-93.218 33.077-112.775 40.607c-19.558 7.506-42.098-30.070-49.604-36.084s0 10.537 4.523 21.049c4.523 10.513-12.028 13.52-28.579 15.035-16.551 1.491-39.091-1.491-78.183-4.523s-45.105-24.056-52.635-48.112c-7.53-24.056-58.649-163.871-64.663-171.4-6.014-7.506-46.621 0-106.761-31.562s-133.801-105.246-215.014-236.039c-81.214-130.794-172.916-381.892-192.45-437.534s-14.121-70.942-1.491-76.691c33.077-15.035 90.211-24.056 138.323-10.537s199.955 154.874 305.225 227.042 184.944 85.688 269.141 163.871 43.59 211.983 43.59 219.513c0 7.506 33.077 36.084 52.635 61.632 19.534 25.548 135.316 123.288 151.843 136.832 16.551 13.544 28.603 37.6 12.028 52.635zM699.41 350.079c-63.148-46.621-187.927-90.211-242.053-127.787s-147.344-111.26-207.485-162.379-115.758-90.211-160.888-78.183c-5.99 1.564-37.576 0-28.579 30.070s105.246 239.070 157.857 353.337 124.804 209 172.916 251.099 126.295 88.719 175.899 76.691c49.604-12.028 129.302-49.604 160.888-123.288s34.593-172.94-28.555-219.561zM941.511 766.564c-13.52-12.028-45.105-48.112-87.204-79.674s-85.688-91.702-91.702-73.66-58.649 64.663-84.197 84.197c-26.197 20.039-87.204 25.548-81.19 43.59s34.593 100.747 43.59 126.295c8.997 25.548 1.491 33.077 24.056 37.576s48.112 4.523 43.59-10.537c-4.523-15.059-39.091-99.232-24.056-109.744 15.035-10.537 30.070-18.042 46.621 12.028s61.632 90.211 67.646 97.716c6.014 7.506 10.537 21.049 28.579 13.52s69.162-22.565 58.649-36.084c-10.513-13.52-22.565-22.565-19.534-33.077 3.031-10.537-9.021-27.063-9.021-27.063s-75.176-72.169-90.211-82.705c-15.035-10.537-15.035-27.063-9.021-34.593s24.056 3.007 40.607 18.042c16.551 15.035 67.646 51.119 82.705 67.646 15.059 16.551 33.077 34.593 45.105 19.534s28.483-20.977 14.987-33.005zM208.784 278.921c1.010-11.042 16.045-9.021 37.095-25.067s38.081-44.095 48.112-38.081-5.004 27.063-29.060 51.119-57.182 23.166-56.147 12.028zM362.142 433.266c-25.067 17.056-59.154 19.774-58.144 9.021 1.997-21.049 26.053-17.032 47.102-33.077 21.049-16.021 40.102-35.074 51.119-28.050 11.042 7-15.035 35.074-40.078 52.106zM463.37 546.522c-24.056 19.028-65.553 37.263-67.165 22.035-1.997-19.028 31.081-26.053 52.13-37.071 21.049-11.042 45.105-58.144 59.13-48.112 14.049 10.031-20.039 44.119-44.095 63.148zM551.609 639.764c-10.031 8.011-25.018 16.094-33.077 8.011-16.045-16.045 17.032-22.060 39.091-48.112s34.088-53.116 50.109-45.105c16.045 8.011-46.116 77.172-56.123 85.207z" />
<glyph unicode="&#xe60b;" d="M506.88 408.072c0 11.12 9.004 20.116 20.116 20.116h32.889v43.145c0 11.12 9.011 20.116 20.116 20.116 11.12 0 20.116-9.004 20.116-20.116v-43.145h32.927c11.097 0 20.116-9.004 20.116-20.116s-9.019-20.116-20.116-20.116h-32.927v-43.182c0-11.12-9.004-20.116-20.116-20.116-11.105 0-20.116 9.004-20.116 20.116v43.182h-32.889c-11.112 0-20.116 9.004-20.116 20.116zM700.166 543.202v-258.943c0-66.552-54.151-120.703-120.703-120.703h-210.77c-66.56 0-120.711 54.151-120.711 120.703v258.943c0 62.866 48.272 114.612 109.682 120.233v26.874h-17.582c-11.12 0-20.116 8.996-20.116 20.116v115.682c0.008 11.12 9.004 20.116 20.116 20.116h268c11.12 0 20.116-8.996 20.116-20.116v-115.674c0-11.12-9.004-20.116-20.116-20.116h-17.598v-26.874c61.402-5.628 109.682-57.374 109.682-120.24zM659.926 526.856h-203.988v-237.56h203.988v237.56zM423.428 730.548v75.442h-20.472v-75.442h20.472zM443.544 730.548h20.472v75.442h-20.472v-75.442zM484.132 730.548h20.488v75.442h-20.488v-75.442zM524.743 730.548h20.472v75.442h-20.472v-75.442zM587.966 805.983h-22.627v-75.442h22.627v75.442zM360.205 730.548h22.634v75.442h-22.634v-75.442zM658.394 269.172h-212.514c-5.56 0-10.058 4.483-10.058 10.058v257.684c0 5.583 4.498 10.058 10.058 10.058h213.675c-2.025 42.591-37.016 76.701-80.1 76.701h-9.095c-11.105 0-20.116 8.996-20.116 20.116v46.52h-152.341v-46.52c0-11.12-9.004-20.116-20.116-20.116h-9.095c-44.366 0-80.471-36.068-80.471-80.471v-258.943c0-44.358 36.105-80.464 80.471-80.464h210.77c39.193 0 71.839 28.202 78.931 65.377z" />
<glyph unicode="&#xe60c;" d="M474.091 681.877c55.81 0.067 101.119 45.343 101.119 101.127 0 55.97-45.284 101.262-101.119 101.144-55.911 0.118-101.203-45.174-101.153-101.144-0.051-55.785 45.241-101.060 101.153-101.127v0zM364.51 437.465v90.609l-90.458-87.44c-39.207-39.165-92.219 11.007-52.919 50.332l143.234 143.689c11.698 11.437 24.433 18.769 44.761 18.946h128.619c20.092-0.177 33.695-7.29 45.604-18.946l144.97-145.4c37.302-37.142-17.185-87.786-52.911-49.902l-91.772 89.151v-91.039h-219.128zM585.93 403.635l-85.173-85.165 62.805-62.359-64.086-64.112c-37.926-37.749 14.21-91.806 53.307-52.928l101.094 105.4c21.904 22.292 27.905 63.252 4.779 86.454-0.253 0.169-72.725 72.708-72.725 72.708v0zM360.515 403.635l85.173-85.165-62.359-62.359 64.086-64.112c37.673-37.749-14.454-91.806-53.358-52.928l-101.515 105.409c-21.685 22.292-27.677 63.252-4.307 86.454 0 0.16 72.278 72.7 72.278 72.7v0z" />
<glyph unicode="&#xe60d;" d="M812.373 303.881c-8.344 37.167-34.892 69.025-69.784 84.196-2.276 0.759-3.793 1.517-6.827 3.034s-6.827 3.034-10.619 4.551c-77.369 34.892-146.394 86.471-204.8 152.462 0 0.759-0.759 0.759-0.759 0.759 14.412 28.065 21.997 59.164 21.997 92.539 0 113.019-91.781 204.8-204.8 204.8-34.892 0-67.508-9.102-96.332-24.273-10.619 14.412-28.065 24.273-47.787 24.273-32.616 0-59.923-27.307-59.923-59.923 0-19.721 9.861-37.167 24.273-47.787-15.17-29.582-24.273-62.199-24.273-97.090 0-113.019 91.781-204.8 204.8-204.8 35.65 0 69.784 9.102 98.607 25.79 58.406-54.613 104.676-119.087 138.050-190.388 1.517-3.034 3.034-6.068 3.793-8.344 6.068-12.136 9.861-21.239 12.895-27.307 15.17-34.892 46.27-61.44 84.196-69.784 9.102-2.276 17.446-3.034 26.548-3.034 27.307 0 53.096 9.861 74.335 28.065 2.276 1.517 3.793 3.793 6.068 6.068s3.793 3.793 6.068 6.068c23.514 27.307 32.616 63.716 24.273 100.124zM192.664 808.296c12.136 0 21.997-9.861 21.997-21.997s-9.861-21.997-21.997-21.997-21.997 9.102-21.997 21.997 9.861 21.997 21.997 21.997zM182.044 580.741c-7.585 18.963-11.378 39.443-11.378 60.681 0 30.341 8.344 59.164 22.756 84.196 32.616 0 59.164 26.548 59.164 59.164 25.031 14.412 53.096 22.756 84.196 22.756 21.239 0 41.719-3.793 60.681-11.378 20.48-24.273 0-91.781-62.199-153.979-61.44-61.44-128.948-81.161-153.221-61.44zM226.797 518.542v0c-6.827 5.31-12.136 10.619-17.446 17.446 45.511 0.759 103.159 29.582 153.979 80.403 50.062 50.821 78.886 108.468 79.644 153.979 6.068-5.31 12.136-11.378 18.204-17.446l-0.759-0.759c24.273-24.273 3.793-100.124-65.233-168.391-69.025-69.025-144.119-89.505-168.391-65.233zM337.541 475.307c-12.136 0-24.273 1.517-35.65 3.793 38.684 12.136 81.161 39.443 120.604 78.127 38.684 38.684 65.233 81.161 78.127 120.604 2.276-11.378 3.793-23.514 3.793-35.65-0.759-92.539-75.093-166.874-166.874-166.874zM758.519 228.030c-1.517-1.517-2.276-3.034-3.793-4.551s-3.034-2.276-4.551-3.793c-18.204-15.929-43.236-21.997-67.508-16.687-25.79 6.068-47.028 23.514-57.647 47.787-3.034 6.068-6.827 15.929-13.653 28.824-1.517 2.276-2.276 5.31-3.793 8.344-33.375 73.576-80.403 139.567-139.567 196.456 11.378 9.102 21.239 19.721 30.341 31.858 60.681-66.75 131.982-119.087 211.627-154.738 3.793-1.517 6.827-3.034 10.619-4.551 3.034-1.517 5.31-2.276 7.585-3.034 24.273-10.619 41.719-31.858 47.787-57.647 5.31-25.031-0.759-49.304-17.446-68.267z" />
<glyph unicode="&#xe60e;" d="M134.053 932.505c1.874 0 4.997-0.625 7.497-3.747l134.294-154.283c1.874-2.501 2.501-4.997 1.874-7.497l-39.351-153.659c-0.625-1.874-1.874-3.747-3.125-4.997l-162.404-45.597c-1.248-0.625-2.501-0.625-3.747-1.248s-3.125-1.248-4.372-1.248c-3.125 0-6.245 1.874-8.122 4.372-2.501 2.501-1.874 4.997-1.874 6.245 6.87 21.862 56.217 180.517 60.588 231.736l9.993 124.925c2.501 4.997 8.122 4.997 8.744 4.997zM134.053 957.49c-14.991 0-29.358-9.37-33.105-24.985l-10.617-128.046c-3.747-50.595-59.965-226.741-59.965-226.741-5.622-22.489 12.493-42.476 33.729-42.476 4.997 0 9.993 1.248 14.991 3.747l164.9 46.221c8.744 4.372 15.617 12.493 18.114 21.862l39.351 153.659c2.501 10.617 0 21.862-7.497 29.981l-133.046 154.906c-7.497 8.122-17.49 11.868-26.858 11.868v0zM410.137 585.837l-159.279 13.118c-3.747 0-6.87 2.501-9.37 4.997-1.874 3.125-3.125 6.87-1.874 10.617l37.477 144.913c1.248 3.747 3.747 6.87 6.87 8.122 3.747 1.248 7.497 1.248 10.617 0l166.776-86.196-11.242-22.489-153.033 79.326-29.981-115.554 144.913-12.493-1.874-24.362zM623.758 137.357h-209.875c-6.87 0-12.493 5.622-12.493 11.868-1.248 34.356-3.747 148.035 0.625 163.027 9.37 33.105 13.118 58.716 11.242 64.338-6.87 14.365-17.49 65.585-13.74 105.562 0.625 6.245 6.245 11.242 12.493 11.242h213.622c6.245 0 11.868-4.997 12.493-11.242 4.372-39.975-6.245-91.821-13.74-106.187-1.874-4.372 0-24.985 11.242-63.086 4.372-14.991 1.248-128.673 0.625-163.027-0.625-6.87-6.245-12.493-12.493-12.493zM426.378 162.34h185.514c1.874 65.585 2.501 134.294 0 143.662-18.114 63.086-11.868 76.828-9.37 81.199 4.372 9.37 13.118 48.094 11.868 81.199h-190.51c-1.248-33.105 6.87-71.207 11.868-80.575 6.245-11.868 2.501-39.975-9.37-81.828-2.501-9.37-1.874-78.080 0-143.662zM514.45 56.154h-156.156c-6.87 0-12.493 5.622-12.493 12.493v41.225c0 33.105 51.843 48.094 61.838 50.595l6.245-24.362c-20.614-5.622-43.723-17.49-43.723-26.858v-28.732h143.662v-24.362zM670.605 56.154h-156.156v24.985h143.662v28.732c0 9.37-24.985 21.862-43.723 26.858l6.245 24.362c10.617-2.501 61.838-18.114 61.838-50.595v-41.225c0.625-7.497-4.997-13.118-11.868-13.118zM651.868 468.408h-268.589c-6.87 0-12.493 5.622-12.493 12.493v99.941c0 6.87 5.622 12.493 12.493 12.493h268.589c6.87 0 12.493-5.622 12.493-12.493v-99.941c0-6.87-5.622-12.493-12.493-12.493zM395.772 493.393h243.604v74.956h-243.604v-74.956zM422.63 580.841h-24.985c0 6.245 0.625 12.493 1.248 18.114l24.985-3.747c-1.248-4.372-1.248-8.122-1.248-14.365zM423.252 596.456l-24.985 3.747c4.997 32.481 23.111 61.838 49.969 81.199l14.365-20.614c-21.238-14.991-35.605-38.727-39.351-64.338zM638.75 580.841h-24.985c0 56.217-43.098 96.818-95.566 96.818-19.988 0-38.727-5.622-54.967-16.866l-14.365 20.614c20.614 14.365 44.35 21.238 69.334 21.238 66.834-0.625 120.552-53.092 120.552-121.802zM869.861 57.406c-90.569 0-164.276 73.706-164.276 164.276 0 69.959 44.35 131.795 109.934 154.906 12.493 4.372 22.489 9.37 30.609 15.617 39.351 29.358 56.217 68.709 57.466 135.545 1.248 56.841-20.614 112.43-60.588 152.41-38.102 38.727-88.072 59.965-141.788 59.965-0.625 0-0.625 0-1.248 0-54.967-0.625-106.813-22.489-144.913-62.462l-18.114 17.49c43.098 44.972 100.564 69.334 162.404 69.959 0.625 0 0.625 0 1.248 0 59.965 0 116.805-23.735 159.279-67.459 44.35-44.972 68.709-107.434 67.459-170.524-1.874-74.331-21.862-120.552-67.459-154.906-9.993-7.497-21.862-13.74-36.853-18.739-55.591-19.363-93.071-72.457-93.071-131.795 0-76.828 62.462-139.292 139.292-139.292v-24.985zM992.287-51.903c-48.721 0-112.43 18.114-131.795 69.334-6.87 18.114-6.87 82.45 0 100.564 19.363 51.221 83.076 69.334 131.795 69.334 49.346 0 113.683-18.114 133.046-69.334 0.625-1.248 2.501-4.372 4.372-6.87 6.87-10.617 17.49-26.233 17.49-43.098 0-17.49-10.617-33.105-17.49-43.098-1.874-2.501-3.747-5.622-4.372-6.87-19.988-51.221-84.324-69.959-133.046-69.959zM992.287 162.968c-40.602 0-93.693-13.74-108.684-53.717-4.997-12.493-4.997-70.583 0-82.45 14.991-39.351 67.459-53.717 108.684-53.717s94.317 13.74 109.311 53.717c1.248 3.747 3.747 7.497 6.87 11.868 5.622 8.122 13.118 19.363 13.118 29.358 0 9.37-8.122 21.862-13.118 29.358-3.125 4.372-5.622 8.122-6.87 11.868-14.991 39.975-68.084 53.717-109.311 53.717z" horiz-adv-x="1200" />
<glyph unicode="&#xe60f;" d="M85.174-80.516c-27.153 0-52.675 10.574-71.882 29.781-19.915 19.91-30.479 46.38-29.75 74.532 0.73 28.147 12.642 54.035 33.558 72.887l406.292 351.914c1.788 1.549 3.65 2.988 5.591 4.317l-102.604 31.892c-27.781 8.638-47.872 31.854-52.421 60.594s7.38 57.018 31.135 73.818l123.885 87.614c13.288 9.395 21.090 24.724 20.884 40.99l-1.942 151.724c-0.259 20.513 7.405 39.725 21.588 54.087 14.345 14.541 34.23 22.883 54.537 22.883 16.207 0 31.817-5.247 45.126-15.181l121.6-90.745c8.485-6.332 18.984-9.818 29.569-9.818 0.005 0 0.005 0 0.005 0 5.401 0 10.744 0.884 15.869 2.619l143.695 48.729c8.083 2.746 16.393 4.131 24.681 4.131 24.174 0 47.173-11.955 61.525-31.976 14.33-19.99 17.98-44.915 10.024-68.385l-48.729-143.695c-5.221-15.415-2.534-32.405 7.194-45.444l90.75-121.605c17.276-23.147 19.964-53.569 7.019-79.383-12.95-25.829-38.916-41.879-67.772-41.879l-1.036 0.005-152.349 1.942c-16.023 0-31.109-7.813-40.36-20.889l-87.614-123.885c-14.425-20.386-36.917-32.083-61.715-32.088-33.563 0-62.773 21.449-72.702 53.378l-31.892 102.61c-1.322-1.92-2.756-3.793-4.317-5.591l-351.734-406.091c-19.424-21.55-46.956-33.791-75.712-33.791zM464.795 437.59c-8.844 0-17.398-3.19-24.090-8.982l-406.091-351.739c-15.276-13.774-24.095-32.934-24.629-53.754-0.54-20.831 7.278-40.419 22.011-55.15 14.213-14.213 33.097-22.031 53.183-22.031 21.275 0 41.652 9.056 55.891 24.851l351.564 405.895c12.579 14.526 11.79 36.541-1.793 50.131-6.956 6.956-16.207 10.781-26.047 10.781zM524.044 950.068c-13.282 0-26.306-5.475-35.726-15.022-6.491-6.57-14.182-18.001-13.959-35.156l1.942-151.724c0.323-24.978-11.669-48.502-32.066-62.926l-123.885-87.614c-15.71-11.113-23.291-29.088-20.281-48.089 3.010-19.006 15.774-33.764 34.15-39.471l144.896-45.042c23.851-7.416 42.519-26.089 49.934-49.934l45.042-144.901c6.564-21.127 25.189-34.78 47.444-34.78 16.102 0 30.728 7.622 40.123 20.91l87.614 123.885c14.198 20.079 37.362 32.071 61.953 32.071l0.973-0.005 152.413-1.942c19.064 0 35.562 10.204 44.127 27.285 8.558 17.069 6.85 36.398-4.576 51.707l-90.745 121.605c-14.938 20.011-19.069 46.089-11.045 69.756l48.729 143.695c5.184 15.298 2.824 31.511-6.474 44.481-12.637 17.631-35.378 25.263-56.219 18.207l-143.695-48.729c-7.866-2.671-16.065-4.026-24.359-4.026h-0.010c-16.245 0.005-32.367 5.353-45.385 15.070l-121.6 90.755c-8.712 6.501-18.847 9.934-29.31 9.934zM87.808-26.461c-28.395 0-51.5 23.105-51.5 51.5 0 28.401 23.105 51.506 51.5 51.506s51.5-23.105 51.5-51.506c0.005-28.395-23.105-51.5-51.5-51.5zM87.808 50.098c-13.812 0-25.052-11.24-25.052-25.057 0-13.812 11.24-25.052 25.052-25.052s25.052 11.24 25.052 25.052c0.005 13.817-11.235 25.057-25.052 25.057zM640.392 361.413c-19.905 0-37.229 12.727-43.122 31.67l-30.935 99.515c-1.815 5.839-6.379 10.41-12.225 12.225l-99.515 30.935c-16.483 5.131-28.406 18.901-31.104 35.955-2.709 17.059 4.375 33.844 18.471 43.814l85.085 60.17c4.988 3.533 7.924 9.294 7.844 15.403l-1.333 104.202c-0.154 12.171 4.402 23.571 12.833 32.108 8.506 8.617 20.291 13.558 32.325 13.558 9.638 0 18.911-3.11 26.797-8.998l83.514-62.329c4.808-3.586 11.372-4.629 17.081-2.709l98.685 33.468c4.776 1.624 9.696 2.443 14.621 2.443 14.362 0 28.020-7.089 36.52-18.953 8.511-11.875 10.69-26.67 5.961-40.594l-33.463-98.69c-1.962-5.792-0.952-12.177 2.709-17.081l62.324-83.519c10.251-13.742 11.849-31.797 4.163-47.115-7.686-15.324-23.095-24.845-40.218-24.845-0.058-0.015-0.55 0.010-0.613 0.005l-104.197 1.333c0 0 0 0-0.005 0-6.263 0-11.929-2.936-15.403-7.844l-60.17-85.085c-8.543-12.108-21.899-19.043-36.632-19.043zM578.724 814.514c-5.015 0-9.934-2.074-13.505-5.687-2.423-2.455-5.289-6.728-5.205-13.187l1.333-104.202c0.19-14.822-6.924-28.776-19.027-37.34l-85.085-60.17c-5.903-4.179-8.755-10.934-7.622-18.085 1.138-7.141 5.929-12.684 12.838-14.833l99.515-30.935c14.161-4.402 25.238-15.478 29.638-29.638l30.935-99.51c2.994-9.649 11.499-13.077 17.863-13.077 3.544 0 10.214 1.016 15.049 7.855l60.17 85.085c8.426 11.917 22.169 19.033 36.764 19.033 0.058 0 0.523-0.005 0.577-0.005l104.202-1.333c7.427 0 13.621 3.835 16.842 10.251s2.577 13.685-1.719 19.445l-62.324 83.519c-8.866 11.88-11.315 27.353-6.549 41.386l33.463 98.69c2.666 7.871-0.365 13.837-2.412 16.69-4.788 6.676-13.251 9.564-21.154 6.872l-98.685-33.463c-13.801-4.692-29.718-2.153-41.386 6.549l-83.519 62.329c-3.349 2.502-7.046 3.761-10.998 3.761z" />
<glyph unicode="&#xe610;" d="M1006.676 560.931c-4.801 17.164-10.704 33.931-17.572 49.857-11.88 27.67-22.943 43.46-25.021 46.355-5.68 7.784-13.315 13.847-21.94 17.857-0.507 17.696 4.467 28.041 10.036 34.005 0.817-2.203 1.695-4.381 2.364-6.62 34.364-113.908 109.899-41.987 42.148 61.118-67.763 103.093-247.195 170.46-247.195 170.46l-42.136-61.118c0 0 33.77-8.996 76.525-26.977-2.302-16.891-10.58-24.44-16.631-27.719-5.222 5.432-11.508 9.912-18.587 12.931-18.661 7.734-40.502 4.591-56.193-8.019l-29.464-23.66c-5.816-4.64-12.226-9.838-20.109-16.248-14.887-12.041-32.36-26.197-52.543-41.863-9.578-7.709-19.911-15.419-30.838-23.586l-12.709-9.566c-5.173-3.576-10.37-7.276-16.31-11.533-10.494-7.45-21.346-15.159-32.174-21.99l-1.831-1.237c-3.985-2.76-8.143-5.296-12.684-8.068-3.774-2.326-7.561-4.665-10.345-6.497-3.985-2.252-7.907-4.591-11.818-6.967l-1.213-0.73c-3.613-2.178-7.227-4.356-10.952-6.237-1.015-0.507-2.017-1.039-3.217-1.745-12.894-7.561-26.977-14.095-41.74-20.925l-9.788-4.467c-17.312-7.029-33.696-13.674-51.045-18.735l-12.399-4.034-13.674-3.453c-0.99-0.26-1.98-0.532-2.958-0.841-4.442-1.398-10.048-2.586-16.433-3.935l-10.741-2.364c-3.948-1.039-8.526-1.77-13.996-2.661-3.91-0.631-7.858-1.287-13.030-2.277-4.888-1.064-10.308-1.72-17.188-2.586-2.784-0.359-5.593-0.705-8.625-1.163l-12.597-1.831-3.403-0.247c-3.626-0.223-7.227-0.483-10.419-0.866-3.354-0.309-6.695-0.681-11.137-1.163-4.616-0.483-9.157-0.965-13.34-1.213-8.143-0.334-16.174-0.916-24.799-1.547-8.873-0.656-17.238-1.262-25.764-1.324-7.153-0.26-14.045-0.656-21.581-1.138-6.62-0.384-12.783-0.78-19.478-0.817-25.257-0.792-41.839-2.871-43.658-3.118-19.997-2.611-37.050-15.877-44.512-34.612-7.474-18.735-4.183-40.094 8.526-55.735 1.163-1.423 11.892-14.454 31.704-32.743 11.706-11.422 25.195-21.235 39.982-31.691 17.188-12.82 36.617-22.868 57.455-33.647 4.158-2.166 8.464-4.108 12.919-5.977 1.287-0.532 2.685-1.064 3.997-1.596-0.111-0.037-0.334-0.111-0.408-0.136-19.131-6.422-33.325-22.695-37.050-42.532-3.75-19.824 3.564-40.143 19.045-53.050 1.398-1.188 14.441-11.917 37.384-26.061 13.686-9.009 28.796-16.025 45.303-23.462 19.205-9.231 40.044-15.332 62.38-21.878-0.582-0.334-0.94-0.557-0.94-0.557-17.423-10.147-28.016-29.006-27.608-49.164 0.384-20.158 11.682-38.572 29.464-48.075 1.621-0.841 16.57-8.699 41.925-17.881 15.159-5.989 31.419-9.788 49.127-13.699 10.283-2.562 20.826-4.257 31.63-5.556-5.705-10.518-8.081-22.72-6.336-34.946 2.896-20.332 16.607-37.545 35.726-44.932 1.732-0.656 17.609-6.695 45.007-12.981 16.26-4.207 33.275-6.039 51.775-7.808 9.504-1.138 19.886-1.695 31.778-1.695 11.694 0 23.834 0.532 36.542 1.089 4.826 0.198 9.64 0.631 14.577 1.237 4.566 0.582 9.207 1.287 13.897 2.029 3.378 0.532 6.818 1.064 10.902 1.596 7.054 0.965 14.119 2.326 21.173 3.787 0.99 0.198 1.955 0.371 3.131 0.705l18.376 4.801c14.33 3.75 29.65 8.081 44.103 14.268l2.079 0.804c12.845 5.049 27.435 10.803 41.913 18.896 14.045 7.276 29.031 15.419 43.138 25.405l18.587 12.709c1.349 0.94 2.685 1.93 3.861 2.92l17.646 14.478c24.366 20.035 47.989 45.007 72.020 76.104 0.544 0.681 1.052 1.349 1.584 2.104 22.695 31.951 39.525 61.007 51.194 88.144 6.002 12.548 10.345 24.675 14.157 35.317l3.626 9.999c0.507 1.374 0.99 2.784 1.336 4.059l2.772 9.429c3.354 11.385 6.843 23.128 9.231 35.453 6.163 26.902 9.739 55.253 11.261 89.642 0.631 29.81-0.619 55.475-3.787 78.356-3.007 22.831-7.499 44.932-13.389 65.585zM875.096 797.187c9.516-6.546 18.661-13.513 27.175-20.925-18.97-5.457-41.987-19.119-66.947-48.533-1.386 4.034-3.217 7.907-5.507 11.484 12.115 27.175 29.588 45.749 45.279 57.975zM932.861 741.477c-14.404-11.261-27.187-31.184-27.67-62.603-7.858-1.856-15.134-5.272-21.396-10.061-4.554 11.484-8.241 18.512-9.281 20.369-2.933 5.321-6.992 9.863-11.533 13.872 37.173 44.289 62.863 40.638 69.879 38.423zM841.982 817.729c-15.035-13.488-30.244-31.592-42.197-55.376-1.918 0.656-3.861 1.262-5.878 1.695-3.477 0.705-7.004 0.94-10.518 0.965 0.124 9.887-0.309 16.433-0.606 19.354 14.020 7.004 29.216 21.346 35.627 45.774 7.833-3.861 15.716-8.019 23.574-12.412zM158.358 407.151c-20.010 10.345-37.285 19.267-52.419 30.553-13.822 9.788-26.073 18.649-36.221 28.573-18.599 17.188-28.078 28.759-28.474 29.241-4.244 5.222-5.333 12.325-2.834 18.587 2.487 6.237 8.167 10.655 14.812 11.533 0.656 0.074 16.124 2.054 39.611 2.809 6.905 0.074 13.674 0.458 22.039 0.94 6.224 0.384 12.783 0.792 19.094 1.015 9.231 0.099 18.178 0.755 28.499 1.497 7.425 0.557 15.035 1.114 22.955 1.423 5.012 0.26 10.246 0.792 16.768 1.497 3.143 0.334 6.311 0.681 9.912 1.039 2.92 0.334 5.828 0.532 8.873 0.73 1.522 0.074 3.044 0.173 5.482 0.433l13.476 1.98c2.784 0.384 5.383 0.73 9.071 1.188 6.361 0.78 12.919 1.621 18.809 2.896 4.343 0.817 7.92 1.423 12.3 2.128 5.927 0.965 11.533 1.881 17.362 3.453l8.848 1.856c6.831 1.448 13.266 2.834 20.443 5.049l14.701 3.774 13.030 4.183c18.71 5.432 35.936 12.424 54.894 20.158l10.58 4.814c15.728 7.301 30.59 14.181 44.833 22.547l1.262 0.681c4.603 2.302 9.033 4.95 13.476 7.635l1.2 0.705c3.613 2.178 7.227 4.356 11.867 7.004 3.502 2.252 7.054 4.442 10.927 6.818 4.764 2.92 9.528 5.853 14.788 9.504 11.484 7.252 22.745 15.246 34.414 23.537 5.074 3.626 10.11 7.227 15.741 11.137l13.525 10.147c11.001 8.192 21.68 16.198 31.333 23.982 20.134 15.642 37.842 29.971 53.792 42.878 6.917 5.606 13.266 10.754 19.045 15.369l29.513 23.685c4.269 3.428 9.788 4.789 15.184 3.75 1.213-0.247 2.388-0.582 3.378-0.99 6.187-2.636 10.803-8.749 11.508-15.221 0.074-0.557 1.188-11.942-0.173-30.763-1.869-1.695-3.651-3.502-5.296-5.457l-24.403-28.882c-4.826-5.63-10.11-11.991-16.631-19.775-12.3-14.676-26.754-31.902-43.571-51.144-7.932-9.429-16.607-18.97-25.764-29.056l-10.63-11.843c-4.381-4.517-8.798-9.132-13.798-14.429-8.873-9.33-18.042-18.97-27.373-27.744l-1.547-1.572c-3.366-3.477-6.992-6.769-10.914-10.37-3.292-2.995-6.534-6.014-8.922-8.34-3.477-2.97-6.893-6.014-10.271-9.083l-1.039-0.94c-3.143-2.834-6.262-5.68-9.553-8.241-0.891-0.681-1.782-1.398-2.821-2.302-11.211-9.912-23.772-18.995-36.975-28.548l-8.736-6.262c-15.654-10.221-30.442-19.886-46.516-28.177l-11.409-6.311-12.758-6.014c-0.928-0.458-1.831-0.916-2.747-1.398-4.096-2.227-9.368-4.467-15.382-7.004l-10.085-4.381c-3.675-1.794-8.019-3.366-13.204-5.321-3.75-1.349-7.474-2.76-12.362-4.715-4.603-1.98-9.788-3.675-16.372-5.828-2.661-0.891-5.358-1.77-8.241-2.784l-12.016-4.244-3.304-0.879c-3.514-0.916-6.992-1.856-10.048-2.846-3.242-0.94-6.447-1.93-10.716-3.267-4.43-1.349-8.811-2.71-12.87-3.725-7.945-1.906-15.703-4.009-24.044-6.286-8.563-2.339-16.669-4.517-25.009-6.249-5.729-1.312-11.31-2.772-17.164-4.282l-14.429 3.948c-6.064 2.005-11.966 4.034-17.498 6.262-3.898 1.596-7.363 2.92-10.729 4.22-3.96 1.51-7.858 3.007-11.583 4.579-3.465 1.51-6.893 3.057-10.494 4.937zM238.434 254.894c-15.444 6.942-29.167 13.315-41.009 21.099-21.557 13.29-33.065 22.844-33.548 23.252-5.173 4.306-7.586 11.088-6.361 17.696 1.262 6.596 5.977 12.041 12.325 14.169 0.631 0.21 15.444 5.098 38.361 10.32 6.769 1.398 13.34 3.069 21.445 5.185 6.026 1.572 12.412 3.217 18.55 4.64 9.033 1.844 17.696 4.207 27.67 6.917 7.177 1.955 14.553 3.96 22.287 5.816 4.863 1.237 9.887 2.76 16.161 4.69 3.032 0.94 6.051 1.869 9.541 2.883 2.809 0.891 5.606 1.658 8.563 2.413 1.473 0.371 2.945 0.78 5.296 1.485l12.845 4.492c2.661 0.94 5.148 1.757 8.675 2.92 6.088 1.98 12.375 4.059 17.906 6.435 4.108 1.658 7.487 2.92 11.669 4.442 5.63 2.104 10.952 4.084 16.384 6.719l8.316 3.527c6.422 2.735 12.486 5.321 19.106 8.873l13.711 6.497 11.979 6.596c17.324 8.947 32.904 19.082 50.018 30.305l9.467 6.744c14.045 10.172 27.311 19.775 39.698 30.714l1.089 0.891c4.084 3.168 7.945 6.62 11.756 10.073l1.039 0.94c3.143 2.834 6.274 5.655 10.333 9.132 2.982 2.871 6.051 5.705 9.405 8.798 4.108 3.774 8.217 7.536 12.696 12.127 9.875 9.306 19.403 19.342 29.266 29.699 4.282 4.517 8.551 9.021 13.34 13.946l11.31 12.573c9.207 10.147 18.178 20.035 26.16 29.538 16.755 19.193 31.394 36.641 44.586 52.345 5.729 6.843 10.976 13.129 15.753 18.76l24.44 28.907c3.502 4.183 8.675 6.571 14.181 6.571 1.225 0 2.45-0.124 3.49-0.334 0.025 0 0.025 0 0.049 0-1.089-3.824-2.252-7.511-3.143-11.558l18.116-4.059c-10.221-4.999-18.896-13.030-24.502-23.4l-17.993-33.263c-3.552-6.497-7.462-13.798-11.694-21.73-9.157-17.114-19.96-37.272-32.743-59.967-5.804-10.754-12.251-21.779-19.292-33.696l-8.006-13.773c-3.366-5.321-6.732-10.729-10.209-16.359-6.905-11.112-14.033-22.646-21.309-33.065-0.495-0.705-0.978-1.423-1.386-2.128-2.537-3.985-5.333-7.833-8.526-12.325-2.611-3.626-5.222-7.276-7.004-9.986-2.834-3.626-5.531-7.326-8.241-11.026l-0.755-1.039c-2.512-3.453-5.012-6.893-7.734-10.073-0.767-0.916-1.534-1.856-2.302-2.871-8.934-11.892-19.379-23.4-30.38-35.478l-7.276-7.883c-13.216-13.191-25.714-25.665-39.809-37.099l-9.875-8.514-11.187-8.439c-0.866-0.656-1.72-1.324-2.463-1.98-3.601-3.044-8.365-6.336-13.662-10.011l-8.947-6.348c-3.341-2.562-7.4-5.049-11.942-7.945-3.354-2.104-6.719-4.207-11.075-7.091-4.096-2.834-8.835-5.581-13.872-8.501l-1.138-0.656c-2.376-1.374-4.789-2.76-7.375-4.306l-10.803-6.571-3.118-1.572c-3.242-1.621-6.472-3.242-9.231-4.814-2.982-1.596-5.94-3.242-9.566-5.247-4.158-2.314-8.241-4.566-12.127-6.447-7.375-3.477-14.553-7.103-21.878-10.853-8.044-4.084-15.642-7.957-23.611-11.409-6.472-2.995-12.659-6.039-18.488-8.922l-1.398-0.718c-0.223-0.099-0.433-0.21-0.656-0.297-3.069 0.458-6.262 0.829-9.182 1.386-4.133 0.804-7.784 1.473-11.348 2.079-4.17 0.742-8.279 1.448-12.239 2.289-3.712 0.78-7.375 1.671-11.273 2.809-21.643 6.422-40.292 11.843-57.307 20.059zM385.568 106.102c-16.582 3.675-31.333 7.091-44.462 12.263-23.821 8.65-37.012 15.654-37.569 15.926-5.94 3.168-9.702 9.306-9.838 16.050-0.124 6.719 3.391 12.993 9.281 16.409 0.124 0.074 13.513 7.92 35.317 17.869 6.212 2.673 12.164 5.581 18.537 8.724l1.423 0.718c5.581 2.797 11.508 5.68 17.238 8.34 8.576 3.712 16.681 7.846 25.69 12.436 6.62 3.366 13.439 6.843 20.567 10.184 4.628 2.24 9.355 4.851 14.911 7.92 2.76 1.547 5.531 3.069 8.736 4.789 2.549 1.448 5.16 2.76 8.613 4.467l15.802 9.194c2.351 1.398 4.591 2.722 6.794 3.985l1.114 0.631c5.272 3.044 11.261 6.46 16.236 9.974 3.7 2.45 6.781 4.381 10.135 6.484 5.222 3.304 10.147 6.398 15.060 10.135l7.227 5.049c5.791 4.009 11.261 7.808 17.077 12.659l12.102 9.182 10.382 8.897c15.208 12.3 28.338 25.455 42.779 39.883l7.907 8.526c11.694 12.857 22.769 24.997 33.498 39.277 3.366 3.935 6.447 8.143 9.541 12.375l0.767 1.015c2.45 3.403 4.937 6.794 8.241 11.075 2.326 3.428 4.739 6.831 7.623 10.828 3.18 4.418 6.373 8.873 9.714 14.169 7.92 11.31 15.283 23.252 22.596 35.045 3.279 5.296 6.534 10.568 10.184 16.359l8.724 14.911c6.88 11.694 13.575 23.128 19.403 33.956 12.746 22.646 23.685 43.051 32.941 60.351 4.207 7.858 8.081 15.085 11.607 21.557l18.030 33.275c2.995 5.556 8.65 9.033 14.738 9.541 2.277-0.148 4.517-0.433 6.769-0.755 4.64-1.423 8.749-4.517 11.051-8.625 0.309-0.606 8.167-14.911 15.543-40.218 0.359-1.262 0.668-2.586 0.99-3.886l-7.375-18.785c-2.809-7.078-5.89-15.035-9.442-24.242-7.14-18.463-15.567-40.193-25.653-64.707-4.616-11.867-9.937-24.093-15.419-36.815l-6.46-15.085c-2.586-5.42-5.111-10.927-7.66-16.433l-0.742-1.596c-5.618-12.201-11.459-24.823-17.547-36.357-0.421-0.817-0.829-1.621-1.163-2.326-2.079-4.368-4.381-8.563-7.153-13.662-2.227-4.009-4.405-8.068-5.927-11.112-2.401-4.034-4.702-8.118-7.462-13.080-2.203-3.935-4.381-7.907-6.967-11.818-0.668-1.015-1.275-2.005-1.807-2.97-7.536-13.191-16.743-26.148-26.556-40.044l-6.447-8.996c-11.843-15.134-23.017-29.439-35.985-42.853l-9.021-9.962-10.419-10.098c-0.742-0.705-1.423-1.423-2.19-2.227-3.378-3.675-8.081-7.858-12.696-11.966l-6.484-5.853c-0.631-0.532-1.225-1.089-1.831-1.732-3.019-2.982-6.781-6.002-11.162-9.578-3.18-2.562-6.348-5.123-10.419-8.637-3.824-3.428-8.34-6.831-13.996-11.088-2.326-1.757-4.665-3.502-7.165-5.445l-10.296-8.118-2.908-1.955c-3.118-2.054-6.163-4.108-8.848-6.088l-8.947-6.435c-3.997-2.92-7.932-5.779-11.694-8.192-7.103-4.467-13.934-9.083-20.839-13.748-7.759-5.222-15.060-10.147-22.782-14.701-6.249-3.873-12.177-7.759-17.72-11.409l-2.079-1.349c-5.284-3.453-10.259-6.719-15.815-9.986-5.507-3.403-10.444-6.546-14.837-9.442-0.235 0-0.458 0-0.693 0.025-22.559 1.831-42.024 3.378-60.413 7.92zM986.691 418.251c-1.411-31.642-4.702-57.888-10.494-83.17-2.19-11.162-5.408-22.064-8.563-32.743l-2.784-9.528-4.257-11.793c-3.675-10.345-7.474-21.024-12.981-32.508-10.927-25.405-26.519-52.233-48.162-82.638-22.509-29.142-44.252-52.196-66.427-70.399l-17.708-14.528c-0.408-0.334-0.854-0.681-1.275-0.94l-18.785-12.857c-12.548-8.848-26.172-16.26-39.537-23.202-12.808-7.153-26.148-12.399-37.941-17.065l-2.562-1.015c-13.315-5.68-27.336-9.528-39.376-12.684l-19.403-4.999c-6.435-1.287-12.709-2.537-18.822-3.366-4.294-0.557-8.019-1.151-11.744-1.732-4.294-0.681-8.514-1.312-12.634-1.819-3.861-0.483-7.734-0.829-11.62-1.015-23.475-1.039-45.155-1.683-62.739 0.433-17.337 1.671-32.817 3.329-46.949 6.967-25.776 5.927-40.218 11.484-40.403 11.558-6.633 2.562-11.372 8.514-12.375 15.543-1.002 7.004 1.869 14.045 7.598 18.413 0.074 0.049 3.935 2.945 10.617 7.561 2.438 0 4.962 0.099 7.462 0.173 0.049 1.72 0.285 3.428 0.433 5.173 4.455 2.945 9.541 6.237 15.32 9.788 5.754 3.354 11.224 6.942 17.040 10.729l2.128 1.386c5.358 3.527 11.026 7.227 16.557 10.679 8.303 4.9 16.087 10.11 24.576 15.84 6.348 4.294 12.857 8.675 19.75 13.018 4.467 2.859 9.021 6.163 14.119 9.863l8.365 6.002c2.425 1.807 4.925 3.477 8.452 5.791l14.775 11.249c2.289 1.807 4.43 3.403 7.474 5.705 4.975 3.762 10.63 7.994 15.27 12.177 3.453 2.97 6.361 5.321 9.788 8.093 4.814 3.935 9.355 7.635 13.847 12.065l6.484 5.866c5.21 4.64 10.593 9.429 15.196 14.367l12.016 11.719 9.479 10.419c13.946 14.429 25.69 29.476 38.596 45.984l7.202 10.023c10.221 14.478 19.886 28.14 28.375 42.952l0.606 0.99c3.019 4.566 5.705 9.355 8.798 14.911 2.128 3.799 4.232 7.573 7.016 12.325 1.943 3.799 3.997 7.524 6.534 12.189 2.661 4.876 5.296 9.714 8.031 15.493 6.608 12.511 12.634 25.554 18.624 38.51l0.606 1.299c2.487 5.395 4.937 10.754 7.759 16.681l6.794 15.778c5.63 12.981 11.088 25.64 15.741 37.606 10.061 24.44 18.599 46.43 26.036 65.697 3.304 8.551 6.348 16.409 9.108 23.45l14.181 36.233c2.623 6.67 8.65 11.36 15.592 12.251 0.755 0.099 1.497 0.148 2.252 0.148 6.447 0 12.659-3.094 16.26-8.019 0.408-0.557 10.221-14.181 20.95-39.178 6.212-14.429 11.583-29.637 15.951-45.266 5.42-18.995 9.528-39.277 12.251-60.376 2.958-21.099 4.096-44.846 3.527-72.255z" />
<glyph unicode="&#xe611;" d="M934.176 791.52c-116.128 115.072-301.824 117.472-422.112 9.216-120.32 108.256-305.952 105.856-422.144-9.216-119.712-118.528-119.712-310.688 0-429.28 34.208-33.888 353.696-350.112 353.696-350.112 37.856-37.504 99.072-37.504 136.896 0 0 0 349.824 346.304 353.696 350.112 119.744 118.592 119.744 310.752-0.032 429.28zM888.576 407.424l-353.696-350.112c-12.576-12.512-33.088-12.512-45.6 0l-353.696 350.112c-94.4 93.44-94.4 245.472 0 338.912 91.008 90.080 237.312 93.248 333.088 7.104l43.392-39.040 43.36 39.040c95.808 86.144 242.112 83.008 333.12-7.104 94.4-93.408 94.4-245.44 0.032-338.912zM296.096 719.968c8.864 0 16-7.168 16-16s-7.168-16-16-16h-0.032c-57.408 0-103.968-46.56-103.968-103.968v-0.032c0-8.832-7.168-16-16-16s-16 7.168-16 16v0c0 75.072 60.832 135.904 135.872 135.968 0.064 0 0.064 0.032 0.128 0.032z" />
<glyph unicode="&#xe612;" d="M829.248 539.424c-13.984 146.016-135.552 260.576-285.248 260.576-115.808 0-214.944-68.736-260.672-167.36-13.76 4.352-28.096 7.36-43.296 7.36-79.52 0-144-64.512-144-144 0-15.808 3.168-30.752 7.872-44.928-61.856-36.064-103.872-102.24-103.872-179.008 0-114.88 93.12-208 208-208v-0.064l575.968 0.064c132.576 0 240 107.424 240 240 0 116.992-83.872 214.176-194.752 235.36zM784 128.064v-0.064h-575.968c-79.392 0.064-144 64.64-144 144.064 0 51.2 26.976 97.44 72.128 123.744 43.872 25.184 46.88 30.176 28.48 75.424-3.104 9.312-4.608 17.408-4.608 24.736 0 44.128 35.872 80 80 80 0 0 20.992 1.504 43.296-7.36 36.704-14.624 40.704-0.64 58.048 37.088 36.704 79.136 116.224 130.304 202.624 130.304 115.2 0 210.432-87.136 221.568-202.688 3.936-45.824 3.936-45.824 51.68-56.736 82.752-15.808 142.752-88.384 142.752-172.512 0-97.056-78.944-176-176-176z" />
<glyph unicode="&#xe613;" d="M1020.192 558.176c-8.864 25.568-31.616 44.288-59.008 48.352l-266.432 39.616-115.808 240.448c-12.192 25.248-38.272 41.408-66.944 41.408s-54.752-16.16-66.944-41.408l-115.808-240.448-266.464-39.616c-27.36-4.064-50.112-22.784-58.944-48.352-8.8-25.632-2.144-53.856 17.184-73.12l195.264-194.944-45.28-270.432c-4.608-27.232 7.2-54.56 30.336-70.496 12.704-8.736 27.648-13.184 42.592-13.184 12.288 0 24.608 3.008 35.776 8.992l232.288 125.056 232.32-125.056c11.168-5.984 23.488-8.992 35.744-8.992 14.944 0 29.888 4.448 42.624 13.184 23.136 15.936 34.88 43.264 30.304 70.496l-45.312 270.432 195.328 194.944c19.296 19.296 25.92 47.52 17.184 73.12zM754.816 340.384c-16.384-16.32-23.808-39.328-20.064-61.888l45.312-270.432-232.32 124.992c-11.136 6.016-23.424 8.992-35.776 8.992-12.288 0-24.608-3.008-35.744-8.992l-232.32-124.992 45.312 270.432c3.776 22.56-3.648 45.568-20.032 61.888l-195.264 194.944 266.432 39.68c24.352 3.616 45.312 18.848 55.776 40.576l115.872 240.384 115.84-240.416c10.496-21.728 31.424-36.928 55.744-40.576l266.496-39.68-195.264-194.912z" />
<glyph unicode="&#xe614;" d="M709.44 684.032c-86.624 17.824-174.56 26.848-261.28 26.848s-174.624-9.024-261.28-26.848c-11.2-2.304-20.352-10.432-23.968-21.344-46.144-140.192-46.144-282.336 0-422.528 3.584-10.88 12.736-19.008 23.968-21.312 86.656-17.792 174.56-26.848 261.28-26.848 86.688 0 174.656 9.056 261.28 26.88 11.264 2.304 20.384 10.432 24 21.312 46.112 140.192 46.112 282.336 0 422.528-3.616 10.88-12.768 19.008-24 21.312zM703.008 250.176c-169.888-34.88-339.808-34.88-509.664 0-44.192 134.176-44.192 268.32 0 402.528 169.888 34.912 339.808 34.912 509.664 0 44.192-134.176 44.192-268.32 0-402.528zM987.328 757.76c-6.176 26.048-28 45.504-54.56 48.704-139.52 16.96-281.024 25.536-420.608 25.536-139.552 0-281.056-8.576-420.576-25.504-26.56-3.232-48.352-22.656-54.528-48.736-48.928-205.536-48.928-413.952 0-619.52 6.176-26.048 27.968-45.504 54.528-48.672 67.232-8.192 134.912-14.176 202.592-18.432-3.648-2.336-6.016-4.704-6.016-7.136 0-17.696 100.288-32 224-32s224 14.304 224 32c0 2.432-2.368 4.8-6.016 7.136 67.68 4.256 135.36 10.24 202.56 18.432 26.56 3.2 48.384 22.624 54.56 48.672 48.992 205.568 48.992 413.984 0.064 619.52zM925.056 153.056c-275.264-33.376-550.528-33.376-825.76 0-46.816 196.64-46.816 393.28 0 589.888 275.264 33.408 550.528 33.408 825.76 0 46.816-196.608 46.816-393.248 0-589.888zM848.192 576c26.496 0 48 21.504 48 48s-21.504 48-48 48-48-21.504-48-48 21.504-48 48-48zM848.192 640c8.8 0 16-7.2 16-16s-7.2-16-16-16-16 7.2-16 16 7.168 16 16 16zM880.192 256c8.8 0 16-7.136 16-16 0-8.8-7.2-16-16-16h-96c-8.864 0-16 7.2-16 16 0 8.864 7.136 16 16 16h96zM912.192 352c8.8 0 16-7.136 16-16 0-8.8-7.2-16-16-16h-96c-8.864 0-16 7.2-16 16 0 8.864 7.136 16 16 16h96zM912.192 448c8.8 0 16-7.168 16-16s-7.2-16-16-16h-96c-8.864 0-16 7.168-16 16s7.136 16 16 16h96zM432.16 582.272c8.832 0.352 16-6.528 16-15.36s-7.2-16.256-16-16.576l-119.968-8.224c-8.736-0.896-16.864-8.768-18.048-17.472l-5.344-60.64c-0.352-8.8-7.84-16-16.576-16-8.768 0-15.584 7.2-15.136 16l9.76 89.152c1.472 8.704 9.824 16.64 18.56 17.632l146.752 11.488z" />
<glyph unicode="&#xe615;" d="M863.936 511.904c0 158.784-129.184 288-288 287.968v0.128c-8.8 0.032-15.936 7.2-15.936 16 0 8.832 7.136 16 16 16 0.32 0 0.576-0.128 0.8-0.192 176.256-0.416 318.944-143.264 319.136-319.552 0-0.096 0.064-0.16 0.064-0.256 0-8.832-7.2-15.968-16-15.968s-15.936 7.104-16 15.872h-0.064zM291.872 931.904c-18.336 18.368-42.912 28.096-67.904 28.096-12.352 0-24.8-2.368-36.672-7.296-35.904-14.848-59.296-49.856-59.296-88.704l-0.032-440.224-99.84-99.904c-37.504-37.44-37.504-98.24 0-135.744l224-224c18.752-18.752 43.296-28.128 67.872-28.128s49.12 9.376 67.872 28.128l99.872 99.872h440.192c38.88 0 73.888 23.36 88.672 59.264 14.88 35.872 6.688 77.184-20.8 104.64l-703.936 704zM442.496 109.248l-99.872-99.872c-8.16-8.128-17.696-9.376-22.624-9.376s-14.464 1.248-22.624 9.376l-224 224c-8.16 8.192-9.376 17.696-9.376 22.624s1.216 14.496 9.376 22.624l99.84 99.872c0.288 0.32 0.384 0.672 0.672 0.992l269.6-269.632c-0.288-0.224-0.704-0.288-0.992-0.608zM487.744 128c-4.96 0-9.568-1.76-14.304-2.816l-284.32 284.32c1.088 4.736 2.848 9.344 2.848 14.272l0.032 385.472 681.184-681.248h-385.44zM957.504 147.744c-4.928-12-16.576-19.744-29.568-19.744h-9.504l-726.432 726.496v9.504c0 12.992 7.744 24.608 19.744 29.568 3.936 1.632 8.032 2.432 12.224 2.432 8.576 0 16.608-3.328 22.624-9.344l703.968-704.032c9.184-9.184 11.936-22.88 6.944-34.88zM575.936 896c-17.632 0.032-31.936 14.368-31.936 32 0 17.696 14.304 32 32 32 0.32 0 0.576-0.128 0.8-0.16 246.944-0.448 446.944-200.608 447.136-447.584 0-0.096 0.064-0.16 0.064-0.256 0-17.696-14.304-32-32-32-17.632 0-31.936 14.272-32 31.872h-0.064c0 211.744-172.256 384-384 384v0.128z" />
<glyph unicode="&#xe616;" d="M960 768h-28.384c-16.8 0-32.928-6.624-44.928-18.432l-86.688-85.504v39.936c0 53.024-43.008 96-96 96h-608c-52.928 0-96-43.040-96-96v-512c0-52.992 42.976-96 96-96h608c52.992 0 96 43.008 96 96v39.072l86.688-85.504c12-11.808 28.128-18.432 44.928-18.432h28.384c35.328 0 64 28.64 64 64v512.864c0 35.36-28.672 64-64 64zM96 160c-17.664 0-32 14.368-32 32v512c0 17.696 14.304 32 32 32h608c17.632 0 32-14.336 32-32v-512c0-17.632-14.368-32-32-32h-608zM960 191.136h-32l-128 128v0.864l-32 32v192l160 160h32v-512.864z" />
<glyph unicode="&#xe617;" d="M959.36 741.792c-3.072 50.24-44.384 90.112-95.36 90.112h-96v32.064c0 53.024-43.008 96-96 96h-320c-53.024 0-96-42.976-96-96v-32.032h-96c-51.040 0-92.32-39.872-95.392-90.112h-0.608v-69.856c0-35.328 28.672-64 64-64v0-544c0-70.688 57.312-128 128-128h512c70.688 0 128 57.312 128 128v544c35.328 0 64 28.672 64 64v69.824h-0.64zM320 863.936c0 17.696 14.304 32 32 32h320c17.696 0 32-14.304 32-32v-32h-384v32zM832 63.936c0-35.264-28.736-64-64-64h-512c-35.296 0-64 28.736-64 64v544h640v-544zM896 703.968v-32h-768v63.968c0 17.696 14.304 32 32 32h704c17.696 0 32-14.304 32-32v-31.968zM288 63.808h64c17.696 0 32 14.304 32 32v416c0 17.696-14.304 32-32 32h-64c-17.696 0-32-14.304-32-32v-416c0-17.696 14.304-32 32-32zM288 511.84h64v-416h-64v416zM480 63.808h64c17.696 0 32 14.304 32 32v416c0 17.696-14.304 32-32 32h-64c-17.696 0-32-14.304-32-32v-416c0-17.696 14.304-32 32-32zM480 511.84h64v-416h-64v416zM672 63.808h64c17.696 0 32 14.304 32 32v416c0 17.696-14.304 32-32 32h-64c-17.696 0-32-14.304-32-32v-416c0-17.696 14.304-32 32-32zM672 511.84h64v-416h-64v416z" />
<glyph unicode="&#xe618;" d="M995.52 53.248c-6.432 4.256-123.136 80.8-296.736 118.368 63.68 80.672 104.576 189.184 121.952 261.408 24.128 100.096 14.752 295.936-81.376 417.984-56.192 71.328-134.816 108.992-227.36 108.992s-171.168-37.696-227.328-108.992c-96.128-122.016-105.472-317.856-81.376-417.952 17.376-72.224 58.24-180.736 121.952-261.408-173.6-37.568-290.304-114.112-296.704-118.368-23.456-15.616-33.952-44.8-25.76-71.744 8.128-27.040 33.056-45.536 61.216-45.536h896c28.192 0 53.056 18.496 61.248 45.504 8.224 26.944-2.272 56.128-25.728 71.744zM648.544 211.264l-10.432-13.248c-76.32-87.68-175.84-87.68-252.128 0l-10.464 13.248c-89.12 112.928-133.344 262.304-114.304 404.8 17.44 136.928 95.904 279.936 250.784 279.936s233.376-143.040 250.816-279.968c18.976-142.56-25.088-291.776-114.272-404.768zM64 0c4.416 2.944 112.832 74.048 274.752 109.056l79.488 17.184c28.384-18.624 59.52-30.24 93.76-30.24 34.272 0 65.376 11.616 93.76 30.24l79.488-17.184c160.64-34.752 268.672-105.056 274.752-109.056h-896z" />
<glyph unicode="&#xe619;" d="M704.128 960c-176.736 0-320-143.296-320-320 0-41.12 8.608-80.032 22.816-116.128l-388.768-388.736c-11.232-11.264-18.176-21.952-18.176-39.136v-96c0-34.24 29.728-64 64-64h96c17.152 0 28 6.88 39.232 18.048l45.92 45.952h74.976c35.328 0 64 28.672 64 64v64h64c35.328 0 64 28.672 64 64v75.008l75.808 75.872c36.128-14.24 75.008-22.88 116.192-22.88 176.672 0 320 143.296 320 320s-143.328 320-320 320zM704.128 384c-47.36 0-91.264 13.76-129.312 36.224l-11.008-10.976-96.96-96.992c-12-12-18.752-28.256-18.752-45.248v-75.008h-64c-35.328 0-64-28.64-64-64v-64h-74.944c-16.96 0-33.248-6.752-45.248-18.752l-45.376-45.376-90.432 0.128-0.096 91.2 373.28 372.608c0 0 0-0.032 0.032-0.064l47.008 47.008c-22.464 38.048-36.224 81.92-36.224 129.28 0 141.376 114.656 256 256 256s256-114.624 256-256-114.592-256.032-255.968-256.032zM890.24 696.352c-35.872 49.984-79.552 93.6-129.76 129.728-8.16 5.92-18.72 7.392-28.224 4.064-44.448-15.648-74.88-46.048-90.432-90.496-1.184-3.328-1.76-6.784-1.76-10.208 0-6.368 1.984-12.672 5.824-18.016 36-50.048 79.616-93.696 129.696-129.696 8.192-5.888 18.688-7.392 28.192-4.096 44.512 15.552 74.944 46.016 90.56 90.496 1.184 3.328 1.76 6.784 1.76 10.208-0.032 6.368-2.048 12.672-5.856 18.016zM794.24 607.68c-47.296 34.016-88.48 75.2-122.24 121.376 12.384 35.296 35.552 58.464 69.824 71.072 47.328-34.080 88.448-75.168 122.112-121.952-12.512-35.040-35.616-58.080-69.696-70.496z" />
<glyph unicode="&#xe61a;" d="M640 959.84c-212.064 0-384-171.936-384-384 0-64.832 16.224-125.856 44.64-179.456l-267.008-266.944 0.224-0.192c-20.864-20.512-33.856-48.928-33.856-80.512 0-62.368 50.56-112.928 112.928-112.928 31.52 0 59.968 12.992 80.48 33.888l-0.064 0.064 266.912 266.88c53.632-28.512 114.752-44.8 179.744-44.8 212.064 0 384 171.936 384 384s-171.936 384-384 384zM153.44 9.696c-10.304-10.688-24.576-17.376-40.512-17.376-31.2 0-56.48 25.248-56.48 56.448 0 15.936 6.72 30.176 17.376 40.512l-0.288 0.256 258.112 258.112c22.56-30.432 49.44-57.312 79.808-79.936l-258.016-258.016zM640 255.808c-176.704 0-320 143.328-320 320 0 176.704 143.296 320 320 320 176.672 0 320-143.296 320-320 0-176.672-143.328-320-320-320zM640 799.84c8.8 0 16-7.168 16-16s-7.2-16-16-16c-106.048 0-192-85.984-192-192 0-8.832-7.168-16-16-16s-16 7.168-16 16c0 123.712 100.256 224 224 224z" />
<glyph unicode="&#xe61b;" d="M972.512 554.24l-98.048 19.648c-4.928 14.176-10.752 27.936-17.184 41.248l55.552 83.328c16.928 25.376 13.568 59.2-8 80.736l-61.568 61.568c-12.384 12.384-28.736 18.752-45.312 18.752-12.256 0-24.64-3.52-35.424-10.752l-83.328-55.52c-13.376 6.464-27.136 12.224-41.312 17.152l-19.648 98.080c-5.952 29.952-32.256 51.456-62.752 51.456h-87.040c-30.496 0-56.768-21.536-62.752-51.456l-19.648-98.080c-14.176-4.928-27.936-10.72-41.248-17.152l-83.296 55.52c-10.848 7.232-23.2 10.752-35.488 10.752-16.544 0-32.896-6.368-45.28-18.752l-61.536-61.568c-21.568-21.568-24.928-55.36-8-80.736l55.52-83.328c-6.464-13.344-12.224-27.104-17.152-41.28l-98.112-19.616c-29.92-5.984-51.456-32.256-51.456-62.752v-87.040c0-30.496 21.536-56.8 51.456-62.752l98.080-19.68c4.928-14.176 10.72-27.936 17.152-41.248l-55.488-83.328c-16.928-25.376-13.568-59.2 8-80.736l61.568-61.568c12.384-12.384 28.736-18.752 45.28-18.752 12.288 0 24.672 3.552 35.456 10.752l83.328 55.552c13.344-6.496 27.104-12.256 41.28-17.184l19.616-98.048c5.984-29.952 32.256-51.488 62.752-51.488h87.040c30.496 0 56.8 21.568 62.752 51.488l19.68 98.048c14.176 4.928 27.936 10.752 41.248 17.184l83.328-55.552c10.816-7.2 23.2-10.752 35.424-10.752 16.576 0 32.928 6.368 45.312 18.752l61.568 61.568c21.568 21.568 24.928 55.36 8 80.736l-55.552 83.328c6.496 13.376 12.256 27.136 17.184 41.312l98.048 19.616c29.92 5.92 51.488 32.256 51.488 62.752v87.040c0 30.496-21.568 56.768-51.488 62.752zM861.888 384.8c-22.24-4.448-40.448-20.32-47.872-41.76-4.128-11.808-8.928-23.264-14.304-34.368-9.952-20.448-8.256-44.576 4.32-63.424l55.552-83.328-61.568-61.568-83.328 55.552c-10.688 7.136-23.072 10.752-35.488 10.752-9.504 0-19.072-2.112-27.872-6.368-11.136-5.376-22.56-10.24-34.432-14.368-21.376-7.424-37.248-25.632-41.696-47.872l-19.68-98.112h-87.040l-19.616 98.112c-4.448 22.24-20.32 40.448-41.728 47.872-11.808 4.128-23.296 8.928-34.4 14.304-8.832 4.32-18.368 6.432-27.904 6.432-12.448 0-24.8-3.616-35.488-10.752l-83.328-55.552-61.568 61.568 55.52 83.328c12.576 18.88 14.208 43.008 4.384 63.36-5.376 11.136-10.208 22.56-14.336 34.432-7.424 21.376-25.664 37.248-47.872 41.696l-98.080 19.68-0.064 87.072 98.112 19.616c22.208 4.448 40.448 20.32 47.872 41.728 4.128 11.808 8.896 23.296 14.304 34.4 9.92 20.416 8.256 44.544-4.352 63.392l-55.488 83.328 61.536 61.568 83.328-55.52c10.688-7.136 23.072-10.752 35.488-10.752 9.504 0 19.040 2.112 27.872 6.368 11.104 5.376 22.56 10.208 34.4 14.336 21.408 7.424 37.28 25.664 41.728 47.872l19.648 98.080 87.040 0.032 19.616-98.112c4.448-22.208 20.32-40.448 41.76-47.872 11.808-4.128 23.264-8.896 34.368-14.304 8.864-4.288 18.368-6.4 27.936-6.4 12.448 0 24.8 3.616 35.488 10.752l83.328 55.52 61.568-61.568-55.552-83.328c-12.576-18.88-14.176-42.976-4.384-63.36 5.376-11.104 10.24-22.56 14.368-34.4 7.424-21.408 25.632-37.28 47.872-41.728l98.048-19.648 0.096-87.040-98.112-19.648zM512 671.968c-123.68 0-224-100.32-224-224 0-123.712 100.32-224 224-224s224 100.32 224 224c0 123.68-100.32 224-224 224zM512 251.936c-108.224 0-196 87.808-196 196 0 108.224 87.776 196 196 196 108.192 0 196-87.776 196-196 0-108.192-87.808-196-196-196zM512 575.968c-70.72 0-128-57.28-128-128 0-70.688 57.28-128 128-128 70.688 0 128 57.312 128 128s-57.312 128-128 128zM512 351.936c-52.992 0-96 43.008-96 96s43.008 96 96 96 96-43.008 96-96c0-52.992-43.008-96-96-96z" />
<glyph unicode="&#xe61c;" d="M512 639.968c-141.408 0-256-114.592-256-256 0-141.376 114.592-256 256-256 141.376 0 256 114.624 256 256s-114.624 256-256 256zM657.76 259.008c-68.992-80.512-190.176-89.824-270.688-20.8-80.544 68.992-89.824 190.208-20.8 270.688 68.96 80.544 190.176 89.824 270.688 20.8 80.48-68.96 89.792-190.208 20.8-270.688zM512 511.968c8.832 0 16-7.168 16-16s-7.168-16-16-16c-53.024 0-95.968-42.976-96-95.968v-0.064c0-8.8-7.168-16-16-16s-16 7.2-16 16v0.064c0.032 70.656 57.312 127.968 128 127.968zM943.744 670.656l-138.688 23.136-43.936 109.888c-14.688 36.64-49.696 60.32-89.12 60.32h-320c-39.424 0-74.432-23.68-89.152-60.352l-43.904-109.856-138.656-23.136c-46.528-7.712-80.288-47.52-80.288-94.656v-480c0-52.928 43.072-96 96-96h832c52.928 0 96 43.072 96 96v480c0 47.136-33.76 86.944-80.256 94.656zM960 96c0-17.696-14.304-32-32-32h-832c-17.696 0-32 14.304-32 32v480c0 15.648 11.328 28.992 26.752 31.552l174.208 29.024 57.312 143.296c4.896 12.128 16.64 20.128 29.728 20.128h320c13.056 0 24.8-7.968 29.696-20.128l57.312-143.296 174.24-29.024c15.424-2.56 26.752-15.904 26.752-31.552v-480z" />
<glyph unicode="&#xe61d;" d="M1004.512 515.744l-160 256c-23.36 37.408-64.384 60.16-108.512 60.16h-608c-70.688 0-128-57.312-128-128v-512c0-70.688 57.312-128 128-128h608c44.128 0 85.12 22.752 108.512 60.192l160 256c25.984 41.44 25.984 94.144 0 135.648zM950.24 414.016l-160-256.064c-11.744-18.816-32.064-30.048-54.24-30.048h-608c-35.296 0-64 28.736-64 64v512c0 35.296 28.704 64 64 64h608c22.176 0 42.496-11.264 54.24-30.048l160-256c12.896-20.64 12.896-47.264 0-67.84zM736 543.904c-53.056 0-96-42.976-96-96s42.944-96 96-96c52.992 0 96 43.008 96 96 0 53.024-43.008 96-96 96zM736 383.872c-35.36 0-64 28.672-64 64s28.64 64 64 64c35.328 0 64-28.672 64-64 0-35.296-28.672-64-64-64z" />
<glyph unicode="&#xe61e;" d="M800 544v128c0 159.072-128.928 288-288 288s-288-128.928-288-288v-128c-53.024 0-96-42.976-96-96v-224c0-159.072 128.928-288 288-288h192c159.072 0 288 128.928 288 288v224c0 53.056-43.008 96-96 96zM288 672c0 123.712 100.288 224 224 224s224-100.288 224-224v-128h-64v127.936c0 88.384-71.616 160-160 160s-160-71.616-160-160v-127.936h-64v128zM640 672v-128h-256v128c0 70.688 57.312 128 128 128s128-57.312 128-128zM832 352v-128c0-123.488-100.512-224-224-224h-192c-123.488 0-224 100.512-224 224v224c0 17.664 14.336 32 32 32 21.344 0 42.656 0 64 0h448c21.312 0 42.624 0 64 0 17.632 0 32-14.336 32-32v-96zM512 352c35.328 0 64-28.64 64-64 0-19.488-10.496-56.576-21.312-85.824-8.736-23.616-17.664-42.112-42.688-42.112-23.008 0-33.952 18.688-42.656 42.432-10.688 29.184-21.344 66.080-21.344 85.504 0 35.36 28.672 64 64 64z" />
<glyph unicode="&#xe61f;" d="M512 960c-194.432 0-352-157.568-352-352 0-128.992 118.016-265.696 160.992-385.76 64.096-179.040 56.992-286.24 191.008-286.24 136 0 126.88 106.688 191.008 285.504 43.104 120.32 160.992 258.496 160.992 386.496 0 194.432-157.632 352-352 352zM594.944 90.368l-158.656-19.808c-5.664 16.384-11.744 35.552-19.136 60.576-0.096 0.32-0.224 0.672-0.288 0.992l198.016 24.736c-2.816-9.44-5.824-19.36-8.448-28.256-4.192-14.368-7.936-26.848-11.488-38.24zM407.552 162.944c-5.824 19.264-12.384 39.552-19.68 61.056h248.512c-3.936-11.488-7.872-23.008-11.264-33.888l-217.568-27.168zM512 0c-32.416 0-47.328 3.744-63.904 40l135.616 16.992c-19.648-52.928-33.952-56.992-71.712-56.992zM661.504 288h-298.656c-15.936 34.56-35.072 69.12-53.952 102.944-41.76 74.72-84.896 152-84.896 217.056 0 158.816 129.184 288 288 288s288-129.184 288-288c0-64.576-43.2-142.272-84.992-217.44-18.688-33.696-37.696-68.192-53.504-102.56zM512 800c8.8 0 16-7.168 16-16s-7.168-16-16-16c-88.224 0-160-71.776-160-160 0-8.832-7.168-16-16-16s-16 7.168-16 16c0 105.888 86.112 192 192 192z" />
<glyph unicode="&#xe620;" d="M940.64 877.44c-52.64 52.576-121.952 82.56-190.272 82.56-57.632 0-110.688-21.376-149.44-60.064l-155.744-156.928c-0.48-0.448-1.024-0.736-1.504-1.216-0.256-0.256-0.416-0.608-0.672-0.832l0.064-0.064-330.528-333.088c-15.232-15.136-26.272-33.984-32.416-54.56l-75.168-272.256c-0.064-0.736-4.96-22.112-4.96-32.992 0-61.824 50.208-112 112.128-112 12.32 0 36.16 5.888 37.024 6.016l271.296 71.328c20.608 6.112 39.328 17.248 54.56 32.512l488.416 492.256c88.832 88.896 78.816 237.888-22.784 339.328zM512.448 198.56c-2.624 28.864-10.784 57.184-23.008 84.064l302.56 302.528c18.496-58.432 8.992-119.552-31.552-160.128-0.256-0.256-0.576-0.416-0.8-0.672l0.448-0.416-247.296-249.28c0 7.968 0.384 15.776-0.352 23.904zM473.376 311.808c-11.936 19.616-25.504 38.56-42.304 55.328-19.552 19.552-41.984 34.88-65.408 47.744l305.024 305.024c23.936-10.624 46.88-25.76 67.136-46.016 17.312-17.248 30.688-36.576 40.992-56.672l-305.44-305.408zM335.552 430.016c-29.632 11.936-60.672 18.752-91.776 19.168l246.496 248.384c37.728 36.8 92.672 47.392 146.784 33.984l-301.504-301.536zM133.344 4.064c-3.488-0.8-14.336-3.552-21.696-4.064-26.304 0.32-47.648 21.696-47.648 48 0.384 5.376 2.528 14.624 3.264 17.984l33.696 122.048c36.576 0.992 75.936-13.248 106.88-44.256 31.424-31.36 46.208-71.488 44.608-108.512l-119.104-31.2zM283.968 43.616c-0.768 42.944-18.24 87.616-53.504 122.816-33.344 33.376-76.992 52.64-120.512 54.368l31.872 115.424c2.304 7.68 6.88 15.264 12.512 21.888 64.192 45.952 162.912 32.384 231.488-36.256 72.544-72.512 83.744-178.752 27.872-242.176-3.712-1.952-7.456-3.808-11.488-4.992l-118.24-31.072zM918.112 583.296l-53.888-54.304c0 7.232 0.864 14.176 0.192 21.568-5.632 61.92-34.496 121.792-81.376 168.608-52.128 52.16-121.248 82.080-189.696 82.272l52.992 53.44c26.528 26.464 63.552 41.12 104.032 41.12 51.488 0 104.384-23.296 145.056-63.84 38.176-38.112 60.928-85.472 64.192-133.376 3.008-44.704-11.744-85.696-41.504-115.488z" />
<glyph unicode="&#xe621;" d="M1005.248 650.336l-162.56 162.592c-12 12-28.32 18.752-45.248 18.752h-570.848c-16.96 0-33.248-6.752-45.248-18.752l-162.56-162.592c-12.576-12.544-18.848-29.088-18.784-45.664 0.096-15.040 5.472-30.048 16.192-42.112l447.968-477.056c12.16-13.696 29.568-21.504 47.84-21.504s35.68 7.808 47.808 21.504l448 477.056c10.944 12.32 16.32 27.744 16.192 43.136-0.128 16.192-6.432 32.32-18.752 44.64zM583.008 607.68h-142.048l71.040 59.168 71.008-59.168zM537.024 687.68l87.424 72.896 64.576-64.576-81.024-67.488-70.976 59.168zM416 628.512l-81.024 67.488 64.576 64.576 87.456-72.896-71.008-59.168zM591.68 575.68l-79.68-398.496-79.68 398.496h159.36zM624.32 575.68h156.992l-235.488-392.608 78.496 392.608zM632.928 607.68l78.816 65.632 65.632-65.632h-144.448zM662.624 767.68h112.384l-61.312-51.104-51.072 51.104zM512 708.48l-71.040 59.2h142.016l-70.976-59.2zM310.272 716.576l-61.312 51.104h112.416l-51.104-51.104zM312.256 673.312l78.784-65.632h-144.416l65.632 65.632zM399.68 575.68l78.496-392.608-235.52 392.608h157.024zM406.528 240.384l-314.88 335.296h113.728l201.152-335.296zM818.624 575.68h113.76l-314.944-335.36 201.184 335.36zM822.624 607.68l-86.176 86.176 73.504 61.28 147.424-147.456h-134.752zM213.952 755.2l73.632-61.344-86.208-86.176h-137.184l149.76 147.52z" />
<glyph unicode="&#xe622;" d="M864 800.128l-704-0.128c-17.696 0-32-14.176-32-31.872v-448c0-17.696 14.304-32 32-32h704c17.696 0 32 14.304 32 32v448c0 17.696-14.304 32-32 32zM864 320h-704v448.128h704v-448.128zM928 928h-832c-53.024 0-96-42.944-96-96v-640c0-52.928 42.816-95.808 95.68-95.936h320.32v-38.944l-199.744-25.952c-14.272-3.552-24.256-16.352-24.256-31.040 0-17.696 14.304-32 32-32h576c17.696 0 32 14.304 32 32 0 14.688-9.984 27.488-24.256 31.072l-199.744 25.92v38.944h320.32c52.864 0.128 95.68 43.008 95.68 95.936v640c0 53.056-43.008 96-96 96zM960 192c0-17.632-14.368-32-32-32h-832c-17.664 0-32 14.368-32 32v640c0 17.664 14.336 32 32 32h832c17.632 0 32-14.336 32-32v-640z" />
<glyph unicode="&#xe623;" d="M512.064 392.128c105.888 0 192 86.144 192 192s-86.112 192-192 192c-105.888 0-192-86.112-192-192s86.112-192 192-192zM512.064 744.128c88.256 0 160-71.744 160-160s-71.744-160-160-160c-88.256 0-160 71.744-160 160s71.744 160 160 160zM512 960c-211.776 0-384-170.112-384-384.032 0-224 192.032-453.152 332.032-614.208 0.512-0.64 22.976-25.76 50.752-25.76 0.064 0 2.336 0 2.464 0 27.744 0 50.24 25.12 50.752 25.76 140.064 161.056 332.064 390.176 332.064 614.208 0 213.92-172.256 384.032-384.064 384.032zM515.744 3.744c-0.672-0.64-2.624-2.048-4.32-3.136-0.32 0.864-2.688 2.752-4.128 4.256-117.28 134.944-315.296 362.688-315.296 571.104 0 176.448 143.584 320.032 320 320.032 176.512 0 320.064-143.584 320.064-320.064 0-208.384-198.016-436.128-316.32-572.192z" />
<glyph unicode="&#xe624;" d="M1022.88 455.168c-0.32 1.344-0.128 2.784-0.64 4.096-0.192 0.544-0.672 0.832-0.864 1.344-0.32 0.768-0.256 1.632-0.672 2.368-92.8 177.632-294.816 304.896-507.936 304.896-213.152 0-415.136-127.072-508-304.672-0.416-0.736-0.352-1.6-0.672-2.368-0.224-0.512-0.672-0.8-0.864-1.344-0.512-1.312-0.32-2.752-0.64-4.096-0.576-2.4-1.12-4.704-1.12-7.168s0.576-4.736 1.12-7.168c0.32-1.344 0.128-2.784 0.64-4.096 0.192-0.544 0.672-0.832 0.864-1.344 0.32-0.768 0.256-1.632 0.672-2.368 92.832-177.632 294.848-304.896 508-304.896 213.12 0 415.136 127.072 507.936 304.672 0.448 0.736 0.384 1.6 0.672 2.368 0.192 0.512 0.672 0.8 0.864 1.344 0.512 1.312 0.32 2.752 0.64 4.096 0.544 2.432 1.12 4.736 1.12 7.168s-0.576 4.768-1.12 7.168zM512.736 192.384c-179.68 0-355.584 102.112-443.232 255.84 88.128 153.92 263.776 255.68 443.232 255.68 179.616 0 355.552-102.144 443.2-255.84-88.128-153.952-263.744-255.68-443.2-255.68zM512.736 576.032c8.832 0 15.936-7.136 15.936-16 0-8.8-7.136-15.968-15.936-15.968v-0.032c-52.928 0-95.968-43.040-95.968-95.904 0-8.832-7.168-16-15.968-16-8.832 0-16 7.168-16 16 0 70.56 57.184 127.744 127.744 127.872 0.064 0 0.128 0.032 0.192 0.032zM512 672c-123.744 0-224-100.288-224-224s100.288-224 224-224c123.68 0 224 100.32 224 224 0 123.744-100.32 224-224 224zM512 256c-105.888 0-192 86.112-192 192s86.112 192 192 192c105.888 0 192-86.112 192-192s-86.112-192-192-192z" />
<glyph unicode="&#xe625;" d="M512 736c8.832 0 16-7.168 16-16s-7.2-16-16-16c-170.464 0-320-89.728-320-192 0-8.832-7.168-16-16-16s-16 7.168-16 16c0 121.408 161.184 224 352 224zM512 896c-282.784 0-512-171.936-512-384 0-132.064 88.928-248.512 224.256-317.632 0-0.864-0.256-1.44-0.256-2.368 0-57.376-42.848-119.136-61.696-151.552 0.032 0 0.064 0 0.064 0-1.504-3.52-2.368-7.392-2.368-11.456 0-16 12.96-28.992 28.992-28.992 3.008 0 8.288 0.8 8.16 0.448 100 16.384 194.208 108.256 216.096 134.88 31.968-4.704 64.928-7.328 98.752-7.328 282.72 0 512 171.936 512 384s-229.248 384-512 384zM512 192c-29.344 0-59.456 2.24-89.472 6.624-3.104 0.512-6.208 0.672-9.28 0.672-19.008 0-37.216-8.448-49.472-23.36-13.696-16.672-52.672-53.888-98.72-81.248 12.48 28.64 22.24 60.736 22.912 93.824 0.192 2.048 0.288 4.128 0.288 5.888 0 24.064-13.472 46.048-34.88 56.992-118.592 60.544-189.376 157.984-189.376 260.608 0 176.448 200.96 320 448 320 246.976 0 448-143.552 448-320s-200.992-320-448-320z" />
<glyph unicode="&#xe626;" d="M1021.568 369.44l-128.064 480.192c-7.744 27.296-33.056 46.368-61.504 46.368h-640c-28.48 0-53.76-19.072-61.504-46.368l-128.064-480.192c-1.632-5.824-2.432-11.68-2.432-17.44v-224c0-70.688 57.312-128 128-128h768c70.688 0 128 57.312 128 128v224c0 5.76-0.8 11.616-2.432 17.44zM960 128c0-35.264-28.736-64-64-64h-768c-35.296 0-64 28.736-64 64v224l128.032 480.032h639.904l128.064-480.032v-224zM759.744 768h-495.488c-14.496 0-27.2-9.76-30.944-23.776l-110.24-384c-2.528-9.632-0.512-19.872 5.568-27.744s15.424-12.48 25.344-12.48h146.176l46.304-92.64c10.88-21.664 33.024-35.36 57.28-35.36h216.512c24.256 0 46.368 13.696 57.248 35.36l46.304 92.64h146.176c9.952 0 19.328 4.64 25.376 12.512s8.064 18.112 5.568 27.744l-110.24 384c-3.744 14.016-16.448 23.744-30.944 23.744zM776.992 384h-53.184c-24.384 0-46.304-13.504-57.248-35.36l-46.304-92.64h-216.512l-46.304 92.64c-10.944 21.856-32.864 35.36-57.248 35.36h-129.504l93.568 352h495.488l93.568-352h-76.32z" />
<glyph unicode="&#xe627;" d="M899.552 799.296l-38.88 116.96c-8.672 26.144-33.12 43.744-60.672 43.744h-576c-27.584 0-52-17.6-60.736-43.744l-39.2-117.024c-33.408-2.144-60.064-29.28-60.064-63.232v-96c0-35.328 28.672-64 64-64h33.088c0-2.4-0.96-4.672-0.672-7.072l64-576c3.584-32.352 30.944-56.928 63.584-56.928h448c32.64 0 60 24.576 63.552 56.928l64 576c0.32 2.4-0.672 4.672-0.672 7.072h33.12c35.328 0 64 28.672 64 64v96c0 34.080-26.88 61.344-60.448 63.296zM224 896h576l32-96h-640l32 96zM288 0l-10.656 96h469.312l-10.656-96h-448zM750.176 128h-476.416l-35.552 320h547.552l-35.584-320zM789.312 480h-554.656l-10.656 96h576l-10.688-96zM896 640h-768v96h768v-96z" />
<glyph unicode="&#xe628;" d="M768 960h-512c-53.056 0-96-42.976-96-96v-832c0-53.056 42.976-96 96-96h512c52.992 0 96 43.008 96 96v832c0 53.056-43.008 96-96 96zM800 32c0-17.632-14.368-32-32-32h-512c-17.664 0-32 14.304-32 32v64.128h576v-64.128zM800 128.128h-576v639.872h576v-639.872zM800 800h-576v64c0 17.664 14.336 32 32 32h512c17.632 0 32-14.336 32-32v-64zM576 848c0-8.832-7.2-16-16-16h-96c-8.864 0-16 7.168-16 16v0c0 8.864 7.136 16 16 16h96c8.8 0 16-7.136 16-16v0zM544 48.128c0-8.8-7.2-16-16-16h-32c-8.832 0-16 7.2-16 16v0c0 8.864 7.168 16 16 16h32c8.8 0 16-7.136 16-16v0z" />
<glyph unicode="&#xe629;" d="M928 960h-704c-53.024 0-96-42.944-96-96v-64h-32c-53.024 0-96-42.944-96-96v-640c0-70.688 57.312-128 128-128h768c70.688 0 128 57.312 128 128v800c0 53.056-43.008 96-96 96zM960 64c0-35.264-28.736-64-64-64h-768c-35.296 0-64 28.736-64 64v640c0 17.664 14.336 32 32 32h32v-640c0-17.696 14.304-32 32-32s32 14.304 32 32v768c0 17.664 14.336 32 32 32h704c17.632 0 32-14.336 32-32v-800zM623.936 543.84c-8.8 0-16 7.168-16 16s7.2 16 16 16h256c8.864 0 16-7.168 16-16s-7.136-16-16-16h-256zM623.936 639.84c-8.8 0-16 7.168-16 16s7.2 16 16 16h256c8.864 0 16-7.168 16-16s-7.136-16-16-16h-256zM623.936 735.84c-8.8 0-16 7.168-16 16s7.2 16 16 16h256c8.864 0 16-7.168 16-16s-7.136-16-16-16h-256zM528 95.872c8.832 0 16-7.2 16-16 0-8.864-7.2-16-16-16h-256c-8.832 0-16 7.136-16 16 0 8.8 7.168 16 16 16h256zM528 191.872c8.832 0 16-7.2 16-16 0-8.864-7.2-16-16-16h-256c-8.832 0-16 7.136-16 16 0 8.8 7.168 16 16 16h256zM528 287.872c8.832 0 16-7.2 16-16 0-8.864-7.2-16-16-16h-256c-8.832 0-16 7.136-16 16 0 8.8 7.168 16 16 16h256zM880 95.872c8.8 0 16-7.2 16-16 0-8.864-7.2-16-16-16h-256c-8.864 0-16 7.136-16 16 0 8.8 7.136 16 16 16h256zM880 191.872c8.8 0 16-7.2 16-16 0-8.864-7.2-16-16-16h-256c-8.864 0-16 7.136-16 16 0 8.8 7.136 16 16 16h256zM880 287.872c8.8 0 16-7.2 16-16 0-8.864-7.2-16-16-16h-256c-8.864 0-16 7.136-16 16 0 8.8 7.136 16 16 16h256zM880 479.872c8.8 0 16-7.168 16-16s-7.2-16-16-16h-608c-8.832 0-16 7.168-16 16s7.168 16 16 16h608zM880 383.872c8.8 0 16-7.2 16-16 0-8.864-7.2-16-16-16h-608c-8.832 0-16 7.136-16 16 0 8.8 7.168 16 16 16h608zM288 544h224c17.696 0 32 14.304 32 32v223.872c0 17.696-14.304 32-32 32h-224c-17.696 0-32-14.304-32-32v-223.872c0-17.664 14.304-32 32-32zM320 768h160v-160h-160v160z" />
<glyph unicode="&#xe62a;" d="M896 800h-768c-70.688 0-128-57.344-128-128v-416c0-70.688 57.312-128 128-128h768c70.688 0 128 57.312 128 128v416c0 70.656-57.312 128-128 128zM64 632l223.968-168-223.968-168v336zM960 256c0-35.328-28.736-64-64-64h-768c-35.296 0-64 28.672-64 64l250.624 188 139.776-104.864c17.056-12.736 37.312-19.2 57.6-19.2 20.256 0 40.512 6.432 57.568 19.2l139.808 104.864 250.624-188zM960 296l-224 168 224 168v-336zM550.368 364.736c-11.168-8.384-24.416-12.8-38.368-12.8s-27.232 4.448-38.4 12.8l-409.6 307.264c0 35.296 28.704 64 64 64h768c35.264 0 64-28.704 64-64l-409.632-307.264z" />
<glyph unicode="&#xe62b;" d="M933.248 624.896c-40 10.496-134.048 10.368-271.616 14.016 6.496 30.016 8 57.088 8 105.152 0 114.816-83.648 215.936-157.632 215.936-52.256 0-95.328-42.72-96-95.264-0.704-64.448-20.64-175.744-128-232.192-7.872-4.16-30.4-15.264-33.696-16.704l1.696-1.44c-16.8 14.496-40.096 25.6-64 25.6h-96c-52.928 0-96-43.072-96-96v-512c0-52.928 43.072-96 96-96h96c38.080 0 69.952 23.008 85.376 55.264 0.384-0.128 1.056-0.32 1.504-0.384 2.112-0.576 4.608-1.184 7.648-1.984 0.576-0.16 0.864-0.224 1.472-0.384 18.432-4.576 53.92-13.056 129.76-30.496 16.256-3.712 102.144-22.016 191.104-22.016h174.944c53.312 0 91.744 20.512 114.624 61.696 0.32 0.64 7.68 15.008 13.696 34.432 4.512 14.624 6.176 35.328 0.736 56.32 34.368 23.616 45.44 59.328 52.64 82.56 12.064 38.112 8.448 66.752 0.064 87.264 19.328 18.24 35.808 46.048 42.752 88.512 4.32 26.304-0.32 53.376-12.448 75.904 18.112 20.352 26.368 45.952 27.328 69.632l0.384 6.688c0.224 4.192 0.416 6.784 0.416 16 0 40.416-28 91.968-90.752 109.888zM224 32c0-17.696-14.304-32-32-32h-96c-17.696 0-32 14.304-32 32v512c0 17.696 14.304 32 32 32h96c17.696 0 32-14.304 32-32v-512zM959.264 494.88c-0.64-15.808-7.264-46.88-63.264-46.88-48 0-64 0-64 0-8.864 0-16-7.168-16-16s7.136-16 16-16c0 0 14.016 0 62.016 0s54.304-39.808 51.2-59.008c-3.968-23.872-15.168-68.992-69.216-68.992-53.984 0-76 0-76 0-8.864 0-16-7.136-16-16 0-8.8 7.136-16 16-16 0 0 38.016 0 63.008 0 54.016 0 49.248-41.184 41.504-65.76-10.208-32.288-16.448-62.24-84.512-62.24-23.008 0-52.192 0-52.192 0-8.864 0-16-7.136-16-16 0-8.8 7.136-16 16-16 0 0 22.176 0 50.176 0 35.008 0 36.64-33.12 32.992-44.992-4-12.992-8.736-22.624-8.928-23.072-9.664-17.44-25.248-27.936-58.24-27.936h-174.944c-87.872 0-175.040 19.936-177.28 20.448-132.928 30.624-139.936 32.992-148.288 35.36 0 0-27.072 4.576-27.072 28.192l-0.224 441.984c0 15.008 9.568 28.576 25.408 33.344 1.984 0.768 4.672 1.6 6.592 2.4 146.176 60.544 190.688 193.28 192 302.272 0.192 15.328 12 32 32 32 33.824 0 93.632-67.904 93.632-151.936 0-75.872-3.072-88.992-29.632-168.064 320 0 317.76-4.608 345.984-12 35.008-10.016 38.016-39.008 38.016-48.992 0-10.976-0.32-9.376-0.736-20.128zM144 128c-26.496 0-48-21.504-48-48s21.504-48 48-48 48 21.504 48 48-21.504 48-48 48zM144 64c-8.8 0-16 7.2-16 16s7.2 16 16 16 16-7.2 16-16-7.2-16-16-16z" />
<glyph unicode="&#xe62c;" d="M864 960h-704c-70.688 0-128-57.312-128-128v-768c0-70.688 57.312-128 128-128h704c70.688 0 128 57.312 128 128v768c0 70.688-57.312 128-128 128zM928 64c0-35.264-28.736-64-64-64h-704c-35.296 0-64 28.736-64 64v768c0 35.296 28.704 64 64 64h704c35.264 0 64-28.704 64-64v-768zM832 832h-640c-17.696 0-32-14.304-32-32v-576c0-17.696 14.304-32 32-32h640c17.696 0 32 14.304 32 32v576c0 17.696-14.304 32-32 32zM832 800v-443.808l-104 112.96c-6.112 6.912-14.816 10.848-24 10.848s-17.952-3.936-24-10.848l-83.328-94.4-252.672 286.4c-6.080 6.912-14.816 10.848-24 10.848s-17.92-3.936-24-10.848l-104-119.936v258.784h640zM192 492.8l128 147.2 276.672-313.632 88.384-102.368h-493.056v268.8zM727.68 224l-109.696 126.56 86.016 97.44 128-140.128v-83.872h-104.32zM640 544c52.992 0 96 42.976 96 96s-43.008 96-96 96c-53.056 0-96-42.976-96-96s42.944-96 96-96zM640 704c35.264 0 64-28.704 64-64s-28.736-64-64-64c-35.328 0-64 28.704-64 64s28.672 64 64 64z" />
<glyph unicode="&#xe62d;" d="M1005.248 717.28l-192 192c-12 12-28.32 18.72-45.248 18.72h-672c-52.928 0-96-43.040-96-96v-768c0-52.928 43.072-96 96-96h832c52.928 0 96 43.072 96 96v608c0 16.992-6.752 33.28-18.752 45.28zM960 64c0-17.696-14.304-32-32-32h-832c-17.696 0-32 14.304-32 32v768c0 17.696 14.304 32 32 32h640v-128h-0.064c0-53.024 43.008-96 96-96h128.064v-576zM863.936 672h-32c-35.264 0-64 28.704-64 64h0.064v128l192-192h-96.064zM496 704c-8.832 0-16 7.136-16 16s7.168 16 16 16h160c8.8 0 16-7.168 16-16s-7.2-16-16-16h-160zM496 608c-8.832 0-16 7.168-16 16s7.168 16 16 16h160c8.8 0 16-7.168 16-16s-7.2-16-16-16h-160zM480 528c0 8.864 7.168 16 16 16h384c8.8 0 16-7.168 16-16s-7.2-16-16-16h-384c-8.832 0-16 7.168-16 16zM880 352c8.8 0 16-7.136 16-16 0-8.8-7.2-16-16-16h-736c-8.832 0-16 7.2-16 16 0 8.864 7.168 16 16 16h736zM880 256c8.8 0 16-7.136 16-16 0-8.8-7.2-16-16-16h-736c-8.832 0-16 7.2-16 16 0 8.864 7.168 16 16 16h736zM880 160c8.8 0 16-7.136 16-16 0-8.8-7.2-16-16-16h-736c-8.832 0-16 7.2-16 16 0 8.864 7.168 16 16 16h736zM880 448c8.8 0 16-7.168 16-16s-7.2-16-16-16h-736c-8.832 0-16 7.136-16 16s7.168 16 16 16h736zM160 512h224c17.696 0 32 14.304 32 32v192c0 17.696-14.304 32-32 32h-224c-17.696 0-32-14.304-32-32v-192c0-17.664 14.304-32 32-32zM192 704h160v-128h-160v128z" />
<glyph unicode="&#xe62e;" d="M480 640c0 17.673 14.327 32 32 32s32-14.327 32-32c0-17.673-14.327-32-32-32s-32 14.327-32 32zM480 256c0 17.673 14.327 32 32 32s32-14.327 32-32c0-17.673-14.327-32-32-32s-32 14.327-32 32zM288 448c0 17.673 14.327 32 32 32s32-14.327 32-32c0-17.673-14.327-32-32-32s-32 14.327-32 32zM672 448c0 17.673 14.327 32 32 32s32-14.327 32-32c0-17.673-14.327-32-32-32s-32 14.327-32 32zM344.224 312.256c0 17.673 14.327 32 32 32s32-14.327 32-32c0-17.673-14.327-32-32-32s-32 14.327-32 32zM344.224 583.776c0 17.673 14.327 32 32 32s32-14.327 32-32c0-17.673-14.327-32-32-32s-32 14.327-32 32zM615.744 312.256c0 17.673 14.327 32 32 32s32-14.327 32-32c0-17.673-14.327-32-32-32s-32 14.327-32 32zM832 512c-2.24 0-4.128-1.056-6.304-1.28-11.136 55.84-37.44 105.792-73.504 147.008l-45.952 249.984c-5.6 30.304-32.064 52.288-62.912 52.288h-256c-30.848 0-57.28-22.016-62.944-52.32l-44.8-241.568c-53.76-57.184-87.584-133.376-87.584-218.112 0-82.656 32.448-156.96 83.872-213.696l45.184-246.016c5.632-30.272 32.096-52.288 62.944-52.288h256c30.816 0 57.248 22.016 62.944 52.32l45.568 245.824c38.048 41.952 65.696 93.44 77.184 151.2 2.176-0.288 4.064-1.344 6.304-1.344 35.328 0 64 28.672 64 64 0 35.36-28.672 64-64 64zM387.328 896h256l32-172.384c-47.264 27.488-101.376 44.384-160 44.384-58.592 0-112.736-16.896-160-44.384l32 172.384zM640 0h-256l-32 172.384c47.232-27.456 101.376-44.384 160-44.384 58.592 0 112.768 16.928 160 44.384l-32-172.384zM512 192c-141.152 0-256 114.88-256 256 0 141.152 114.848 256 256 256s256-114.848 256-256c0-141.12-114.88-256-256-256zM670.112 607.168c3.872-3.872 4.256-10.112 0.896-14.368l-77.632-96.672-59.136-71.2c-6.048-5.824-14.368-8.8-22.368-8.864-8.608 0.064-16.64 3.392-22.624 9.344s-9.248 13.92-9.248 22.336c0 8.704 3.36 16.832 9.472 22.976l166.144 137.12c4.384 3.52 10.624 3.2 14.496-0.672z" />
<glyph unicode="&#xe62f;" d="M1009.376 954.88c-5.312 3.424-11.36 5.12-17.376 5.12-6.176 0-12.384-1.76-17.76-5.376l-960-640c-9.888-6.56-15.328-18.112-14.048-29.952 1.216-11.808 8.896-22.016 19.936-26.368l250.368-100.192 117.728-206.016c5.632-9.888 16.096-16 27.424-16.128 0.128 0 0.224 0 0.352 0 11.232 0 21.664 5.952 27.424 15.552l66.464 110.816 310.24-124.064c3.808-1.536 7.808-2.272 11.872-2.272 5.44 0 10.816 1.376 15.68 4.128 8.448 4.736 14.24 13.056 15.872 22.624l160 960c2.080 12.576-3.488 25.184-14.176 32.128zM100.352 295.136l741.6 494.432-539.2-577.184c-2.848 1.696-5.376 3.936-8.512 5.184l-193.888 77.568zM326.048 189.888c-0.064 0.128-0.16 0.192-0.224 0.32l606.176 648.8-516.768-805.184-89.184 156.064zM806.944 12.512l-273.312 109.312c-6.496 2.56-13.248 3.424-19.936 3.808l420.864 652.416-127.616-765.536z" />
<glyph unicode="&#xe630;" d="M256 767.328v96.672c0 52.928-43.072 96-96 96s-96-43.072-96-96v-96.672c-38.656-29.28-64-75.136-64-127.328s25.344-98.048 64-127.264v-480.736c0-52.928 43.072-96 96-96s96 43.072 96 96v480.736c38.656 29.184 64 75.072 64 127.264s-25.344 98.048-64 127.328zM128 864c0 17.696 14.304 32 32 32s32-14.304 32-32v-67.2c-10.336 2.080-21.024 3.2-32 3.2s-21.664-1.12-32-3.2v67.2zM192 32c0-17.696-14.304-32-32-32s-32 14.304-32 32v451.264c10.336-2.144 21.024-3.264 32-3.264s21.664 1.12 32 3.264v-451.264zM251.68 613.12c-0.512-1.696-0.96-3.36-1.568-5.056-3.040-8.448-6.944-16.448-12.096-23.552-0.128-0.192-0.32-0.32-0.448-0.512-5.568-7.616-12.192-14.368-19.712-20.064-0.128-0.128-0.224-0.192-0.32-0.256-7.712-5.824-16.32-10.496-25.568-13.76-10.016-3.616-20.672-5.92-31.968-5.92s-21.952 2.304-32 5.952c-9.248 3.264-17.856 7.936-25.568 13.76-0.096 0.064-0.192 0.128-0.32 0.256-7.52 5.696-14.144 12.448-19.712 20.064-0.128 0.192-0.32 0.32-0.448 0.512-5.152 7.136-9.056 15.136-12.096 23.552-0.608 1.696-1.056 3.36-1.568 5.056-2.528 8.544-4.288 17.472-4.288 26.848 0 9.44 1.76 18.368 4.32 26.944 0.512 1.696 0.96 3.36 1.568 4.992 3.008 8.448 6.912 16.448 12.096 23.616 0.128 0.192 0.32 0.32 0.448 0.512 5.568 7.552 12.192 14.368 19.712 20.064 0.128 0.064 0.224 0.192 0.32 0.256 7.68 5.728 16.288 10.432 25.536 13.728 10.048 3.584 20.704 5.888 32 5.888s21.952-2.304 32-5.888c9.248-3.328 17.856-8 25.568-13.76 0.096-0.064 0.192-0.192 0.32-0.256 7.52-5.696 14.144-12.512 19.712-20.064 0.128-0.192 0.32-0.32 0.448-0.512 5.152-7.136 9.056-15.136 12.064-23.584 0.608-1.632 1.088-3.296 1.568-4.992 2.56-8.576 4.32-17.504 4.32-26.944 0-9.376-1.76-18.304-4.32-26.88zM960 767.328v96.672c0 52.928-43.072 96-96 96s-96-43.072-96-96v-96.672c-38.688-29.28-64-75.136-64-127.328s25.312-98.048 64-127.264v-480.736c0-52.928 43.072-96 96-96s96 43.072 96 96v480.736c38.624 29.184 64 75.072 64 127.264s-25.376 98.048-64 127.328zM832 864c0 17.696 14.304 32 32 32s32-14.304 32-32v-67.2c-10.368 2.080-21.056 3.2-32 3.2-11.008 0-21.696-1.12-32-3.2v67.2zM896 32c0-17.696-14.304-32-32-32s-32 14.304-32 32v451.264c10.304-2.144 20.992-3.264 32-3.264 10.944 0 21.632 1.12 32 3.264v-451.264zM955.68 613.12c-0.512-1.696-0.992-3.36-1.568-5.056-3.072-8.448-6.944-16.448-12.128-23.552-0.128-0.192-0.32-0.32-0.448-0.512-5.568-7.616-12.192-14.368-19.68-20.064-0.128-0.128-0.256-0.192-0.32-0.256-7.744-5.824-16.32-10.496-25.568-13.76-10.016-3.616-20.704-5.92-31.968-5.92-11.328 0-21.952 2.304-32 5.952-9.248 3.264-17.888 7.936-25.568 13.76-0.128 0.064-0.192 0.128-0.32 0.256-7.552 5.696-14.176 12.448-19.744 20.064-0.128 0.192-0.32 0.32-0.448 0.512-5.12 7.136-9.056 15.136-12.064 23.552-0.64 1.696-1.056 3.36-1.568 5.056-2.528 8.544-4.288 17.472-4.288 26.848 0 9.44 1.76 18.368 4.32 26.944 0.512 1.696 0.928 3.36 1.568 4.992 3.008 8.448 6.944 16.448 12.064 23.616 0.128 0.192 0.32 0.32 0.448 0.512 5.568 7.552 12.192 14.368 19.744 20.064 0.128 0.064 0.192 0.192 0.32 0.256 7.68 5.76 16.32 10.432 25.568 13.76 10.016 3.552 20.64 5.856 31.968 5.856 11.264 0 21.952-2.304 32-5.888 9.248-3.328 17.824-8 25.568-13.76 0.064-0.064 0.192-0.192 0.32-0.256 7.488-5.696 14.112-12.512 19.68-20.064 0.128-0.192 0.32-0.32 0.448-0.512 5.184-7.2 9.056-15.2 12.128-23.616 0.576-1.632 1.056-3.328 1.568-4.992 2.528-8.544 4.288-17.472 4.288-26.912 0-9.376-1.76-18.304-4.32-26.88zM608 383.328v480.672c0 52.928-43.072 96-96 96s-96-43.072-96-96v-480.672c-38.656-29.248-64-75.136-64-127.328s25.344-98.048 64-127.264v-96.736c0-52.928 43.072-96 96-96s96 43.072 96 96v96.736c38.624 29.184 64 75.072 64 127.264s-25.376 98.048-64 127.328zM480 864c0 17.696 14.304 32 32 32s32-14.304 32-32v-451.2c-10.368 2.048-21.056 3.2-32 3.2-10.976 0-21.664-1.12-32-3.2v451.2zM544 32c0-17.696-14.304-32-32-32s-32 14.304-32 32v67.264c10.336-2.144 21.024-3.264 32-3.264 10.944 0 21.632 1.12 32 3.264v-67.264zM603.68 229.12c-0.512-1.696-0.992-3.36-1.568-5.056-3.072-8.448-6.944-16.448-12.128-23.552-0.128-0.192-0.32-0.32-0.448-0.512-5.568-7.616-12.192-14.368-19.68-20.064-0.128-0.128-0.256-0.192-0.32-0.256-7.744-5.824-16.32-10.496-25.568-13.76-10.016-3.616-20.704-5.92-31.968-5.92-11.296 0-21.952 2.304-32 5.952-9.248 3.264-17.856 7.936-25.568 13.76-0.096 0.064-0.192 0.128-0.32 0.256-7.52 5.696-14.144 12.448-19.712 20.064-0.128 0.192-0.32 0.32-0.448 0.512-5.152 7.136-9.056 15.136-12.096 23.552-0.608 1.696-1.056 3.36-1.568 5.056-2.528 8.544-4.288 17.472-4.288 26.848 0 9.44 1.76 18.368 4.32 26.944 0.512 1.696 0.96 3.36 1.568 4.992 3.040 8.448 6.944 16.448 12.096 23.616 0.128 0.192 0.32 0.32 0.448 0.512 5.568 7.552 12.192 14.368 19.712 20.064 0.128 0.064 0.224 0.192 0.32 0.256 7.712 5.76 16.32 10.432 25.568 13.76 10.016 3.552 20.672 5.856 31.968 5.856 11.264 0 21.952-2.304 32-5.888 9.248-3.328 17.824-8 25.568-13.76 0.064-0.064 0.192-0.192 0.32-0.256 7.488-5.696 14.112-12.512 19.68-20.064 0.128-0.192 0.32-0.32 0.448-0.512 5.184-7.2 9.056-15.2 12.128-23.616 0.576-1.632 1.056-3.328 1.568-4.992 2.528-8.544 4.288-17.472 4.288-26.912 0-9.376-1.76-18.304-4.32-26.88z" />
</font>
</defs>
</svg>
